<svg xmlns="http://www.w3.org/2000/svg" viewBox="0 0 124.92 155.64"><defs><style>.cls-1{fill:#231f20;}</style></defs><g id="Layer_2" data-name="Layer 2"><g id="Layer_1-2" data-name="Layer 1"><path class="cls-1" d="M72.9,38.45q13.6,0,21.53,7.58T105,67.22l17.61-1.39s-.16-45.22,2.32-48.38H121.8a2.73,2.73,0,0,1-2.27,2.36c-2,.37-4.09-1.91-6.79-1.89-1.47,0-3.61.31-4.15.8.77-1.21,2.88-2,4-2.31l3.61-1A14.55,14.55,0,0,0,119.73,14a7.7,7.7,0,0,0,2.65-2.49,7.53,7.53,0,0,0,1.05-4.23,6.76,6.76,0,0,0-.87-3.58,6.57,6.57,0,0,0-2.25-2.23A9.44,9.44,0,0,0,117.16.32,20.34,20.34,0,0,0,113.59,0a12.65,12.65,0,0,0-4.48.71A9.79,9.79,0,0,0,106,2.5a6.92,6.92,0,0,0-1.77,2.4,6.6,6.6,0,0,0-.56,2.53,3.7,3.7,0,0,0,.8,2.45,2.82,2.82,0,0,0,2.28,1,3.06,3.06,0,0,0,2.37-.93A3.18,3.18,0,0,0,110,7.65a2.76,2.76,0,0,0-.67-1.89,2,2,0,0,0-1.42-.8A2.33,2.33,0,0,1,109,3.82a4.91,4.91,0,0,1,2.27-.42,4,4,0,0,1,1.24.2,2.75,2.75,0,0,1,1.06.61,3.25,3.25,0,0,1,.74,1.06,3.76,3.76,0,0,1,.29,1.53,5.61,5.61,0,0,1-.69,2.94,8.15,8.15,0,0,1-1.79,2c-.73.6-1.54,1.2-2.41,1.79a16.51,16.51,0,0,0-2.58,2.21,11.74,11.74,0,0,0-2.32,3.31c-1.35,3-3.29,13-3.29,13q-5.58-5-15.26-8.2t-22.93-3.2a69.7,69.7,0,0,0-24.16,4.18A56.66,56.66,0,0,0,19,37.47,60.1,60.1,0,0,0,5.15,58.89Q0,71.87,0,89.46q0,16.89,5.23,29.35a56.19,56.19,0,0,0,35.32,32.82,82,82,0,0,0,25.9,4q13.59,0,23.54-3.57a49.17,49.17,0,0,0,27.73-23.64,75.29,75.29,0,0,0,6.45-16.56l-15.87-4q-4.53,14-13.51,20.57t-25.38,6.63a31,31,0,0,1-12.82-2.7A27.57,27.57,0,0,1,46.13,124a41.93,41.93,0,0,1-7-14.56,78.71,78.71,0,0,1-2.53-21.28q0-23.72,8.29-36.71T72.9,38.45Z"/></g></g></svg>