<svg xmlns="http://www.w3.org/2000/svg" viewBox="0 0 798 570"><defs><style>.cls-1{fill:#eaeb88;opacity:0.65;}.cls-2{fill:#a34b22;}.cls-3{fill:#616264;}</style></defs><g id="Layer_2" data-name="Layer 2"><g id="Layer_1-2" data-name="Layer 1"><rect class="cls-1" width="798" height="570"/><path class="cls-2" d="M483.59,236.11q1.49-1.25,5.74-1.24h8.06V230h-33l-26.67,76.56-29-76.56H376.45v4.92h8.26q4.14,0,5.64,1.15a4.27,4.27,0,0,1,1.51,3.63l.38,67h3.89V242l35.68,84.87h4.41l32.06-92V317.2a4.19,4.19,0,0,1-1.71,3.44,8.53,8.53,0,0,1-5.27,1.34H453v4.92h44.37V322H490q-4.33,0-6.1-1.24a4.07,4.07,0,0,1-1.77-3.54V240.44C482.12,238.39,482.61,236.94,483.59,236.11Z"/><path class="cls-3" d="M293,319.69h6.32a12.68,12.68,0,0,1,7.68,2.18,6.66,6.66,0,0,1,3,5.59,6.94,6.94,0,0,1-1.91,4.82,11,11,0,0,1-6,2.94l8.47,11.61H306l-8.08-11.16H297v11.16h-4Zm4,3.28v9.46q8.82.17,8.82-4.75a4,4,0,0,0-1-2.82,5.27,5.27,0,0,0-2.75-1.49A23.64,23.64,0,0,0,297,323Z"/><path class="cls-3" d="M327.29,319.69h3.94v27.14h-3.94Z"/><path class="cls-3" d="M367,322.72l-3.23,2.4a12.63,12.63,0,0,0-2.31-1.84,6.13,6.13,0,0,0-3-.61,6,6,0,0,0-3.48.91,2.7,2.7,0,0,0-1.34,2.32,2.76,2.76,0,0,0,1.17,2.18,16.31,16.31,0,0,0,4,2.07,28.81,28.81,0,0,1,4.37,2.09,11.18,11.18,0,0,1,2.58,2.14,8.27,8.27,0,0,1,1.49,2.47,7.62,7.62,0,0,1,.49,2.75,7.52,7.52,0,0,1-2.64,5.77,9.26,9.26,0,0,1-6.4,2.38,11.37,11.37,0,0,1-6.47-1.87,11.68,11.68,0,0,1-4.31-5.59l4-1q2.17,4.58,6.66,4.58a5.42,5.42,0,0,0,3.62-1.21,3.84,3.84,0,0,0,1.44-3.06,3.94,3.94,0,0,0-.75-2.22,6.72,6.72,0,0,0-1.88-1.84,20.77,20.77,0,0,0-3.57-1.65,26.14,26.14,0,0,1-3.77-1.72,9.07,9.07,0,0,1-2.29-1.85,7.94,7.94,0,0,1-1.42-2.14,5.79,5.79,0,0,1-.44-2.28,6.21,6.21,0,0,1,2.51-5,9.37,9.37,0,0,1,6.12-2.05,13.15,13.15,0,0,1,4.83,1A9.83,9.83,0,0,1,367,322.72Z"/><path class="cls-3" d="M384.2,319.69h7.07q8.4,0,12.5,4.13a13.08,13.08,0,0,1,4.1,9.44,12.8,12.8,0,0,1-4.24,9.46q-4.23,4.11-12.31,4.11H384.2Zm4,3.62v19.86h.23a45.32,45.32,0,0,0,6.68-.37,11.69,11.69,0,0,0,4.26-1.63,9.43,9.43,0,0,0,3.21-3.34,9.06,9.06,0,0,0,1.19-4.57,9.77,9.77,0,0,0-6.45-9.07,23,23,0,0,0-7.1-.88Z"/></g></g></svg>