<svg xmlns="http://www.w3.org/2000/svg" viewBox="0 0 380.94 364.18"><defs><style>.cls-1{fill:#fff;}.cls-2{fill:#065864;stroke:#fff;stroke-linecap:round;stroke-linejoin:round;}</style></defs><g id="Layer_2" data-name="Layer 2"><g id="Layer_1-2" data-name="Layer 1"><path class="cls-1" d="M287.25,351.75h0v.06h0v.06h-.05v.05h-.05V352H287V352H287v.06h0v.06h0v.06h0v.06h-.05v.05h0v.06h-.05v.06h-.05v.05h-.05v.06h-.05v.06h0v.05h0v.06h-.05v.06h-.05v.05h-.05v.06h0V353h-.05V353h-.05v.05h0v.06h0v.06H286v.05h-.05v.06h-.05v.06h-.05v0h0v.06h-.05v.06h0v.05h0v.06h0v.06h-.05v.06h-.05v.05h-.05v.06h-.05v.06h0V354h0V354h0v.06h-.05v.05h0v.06h-.05v.06h-.05v.05H285v.06H285v.06h0v.06h0v.06h-.05v.06h-.05v.06h0v0h-.05v.06h-.05v.06h-.05v.05h0v.06h0V355h-.05v.05h-.05v.06h-.05v.06h-.05v.05h0v.06h-.05v.06h0v.06h0v.05h0v.06H284v.06h-.05v.05h-.05v.06h-.05v.06h0v.05h0v.06h0v.06h-.05v0h0V356h-.05v.06h-.05v.06h-.05v.05h-.05v.06h0v.06h0v.05h-.05v.06h-.05v.06h0v0h-.05v.06h-.05v.06H283v.05h0v.06h0v.06h-.05v.06h-.05v.06h-.05V357h0v.06h-.05v.05h-.05v.06h0v.06h0v0h0v.06h-.05v.06h-.05v.05h-.05l0,5.89h5.53v-.06h.05v-.06h.05v-.05H288v-.06h0v-.06h.05V363h.05v-.06h.05v-.06h0v-.05h.05v-.06h.05v-.06h.05v0h.05v-.06h0v-.06h.05v-.06h.05v-.05h0v-.06h0v-.06h.05v-.05h.05v-.06h.05v-.06h.05v-.05h0V362H289V362h0v-.05H289v-.06h0v-.06h.05v-.05h.05v-.06h.05v-.06h.05v-.06h0v-.05h0v-.06h.05v-.06h.05v0h0v-.06h.05v-.06h.05v-.05h.05v-.06h.05v-.06h0V361h.05V361h.05v-.06h.05v-.06H290v-.05h0v-.06h.05v-.06h.05v-.05h0v-.06h0v-.06h.05v-.05h.05v-.06h.05v-.06h.05v-.05h0v-.06h.05v-.06h0v-.06h.05v0h0V360h.05v-.06h.05v-.05h.05v-.06h.05v-.06h0v-.05h0v-.06H291v-.06H291v-.05h0v-.06h.05v-.06h.05v-.05h.05v-.06h.05v-.06h0v-.06h.05v-.05h.05v-.06h.05V359h0V359h.05v-.06h.05v-.06h.05v0h0v-.06h0v-.06h.05v-.05h.05v-.06h.05v-.06H292v-.06h0v-.05h.05v-.06h0v-.06h.05v0h0v-.06h.05v-.06h.05v-.05h.05V358h.05v-.06h0v-.05h0v-.06h.05v-.06h.05v-.06h0v-.05h.05v-.06h.05c0-1.95,0-3.9,0-5.86l-5.53,0Z"/><path class="cls-1" d="M287.17,183.15c-.54-8-1.72-19.23-8.66-27.18a24.72,24.72,0,0,0-7.6-5.9A32.29,32.29,0,0,0,261,147a30.91,30.91,0,0,0-6.35-.23,17.83,17.83,0,0,0-12.95,6l-.05.06,0,.05-.05.06-.05.06,0,0-.05.06,0,.06-.05.06,0,.05-.05.06-.05.06,0,.05,0,.06-.05.06-.05.05,0,.06-.05.06,0,.05-.05.06-.05.06,0,0-.05.06,0,.06-.05.06,0,.05-.05.06-.05.06,0,0,0,.06-.05.06-.05.05,0,.06-.05.06,0,.05-.05.06-.05.06,0,.06a.12.12,0,0,0,0,0l-.05.06-.05.06,0,.05-.05.06,0,.06a.12.12,0,0,1-.05,0l0,.06-.05.06-.05.05,0,.06-.05.06,0,0-.05.06-.05.06,0,.06a.12.12,0,0,0,0,.05l-.05.06L239,156l0,.05-.05.06,0,.06a.12.12,0,0,1-.05,0l0,.06-.05.06-.05.06,0,.05-.05.06,0,.06s0,0-.05,0l-.05.06,0,.06a.12.12,0,0,0,0,.05l-.05.06-.05.06,0,0-.05.06,0,.06-.05.05,0,.06-.05.06,0,.06-.05.05-.05.06,0,.06s0,0-.05,0l0,.06,0,.06a.12.12,0,0,0,0,.05l-.05.06-.05.06,0,0-.05.06,0,.06-.05.05,0,.06-.05.06,0,.06-.05.05-.05.06,0,.06a22.68,22.68,0,0,0-3.65,5.82c-2.67,5.88-3.42,12.91-3.84,18.44q-5.07,62.86-10.05,126.25,10.68.19,21.36.49v-.06h0v-.06h0v-.06h0v-.06h0v-.06H241V309h.05v-.06h0v-.05h0v-.06h0v-.06h0v0h0v-.06h.05v-.06h0v-.05h.05v-.06h0v-.06h0v-.06h0v-.06h0v-.06h0v-.06h0v-.05h.05v-.06h.05V308h0v0h0v-.06h0v-.06h0v-.05h0v-.06h.05v-.06h0v-.06h.05v-.06h0v-.06h0v-.06h0v0h0v-.06h0v-.06h0v-.05h.05v-.06h.05v-.06h0v-.05h0V307h0V307h0v-.06h0v-.06h.05v-.06h0v-.06H243v-.06h0v-.06h0v-.06h0v-.05h0v-.06h0v-.06h0v-.05h.05v-.06h0v-.06h0v0h0v-.06h0V306h0V306h0v-.06h.05v-.06h0v-.06h.05v-.05h0v-.06h0v-.06h0v-.05h0v-.06h0v-.06h0v-.05h.05v-.06h0v-.06h0v-.06h0v-.06h0v-.06h0v-.06h0V305h.05V305h0v-.06h.05v0h0v-.06h0v-.06h0v-.05h0v-.06h0v-.06h0v-.06h.05v-.06h0v-.06h0v-.06h0v-.06h0v-.06h0v-.06h0v-.05h.05v-.06h0V304h.05v-.05h0v-.06h0v-.06h0v-.05h0v-.06h0v-.06h0v-.06h.05q1.27-15.45,2.57-30.84,9.39.51,18.77,1.16,1.34,18.29,2.67,36.48,10.67.47,21.31,1.07v-.06H291v-.06h0v-.06h.05v-.06h.05v-.06h.05v-.06h.06v-.06h.06V311h.06V311h.05v-.06h.05v-.06h0v-.06h.05v-.06h.05v-.06h.06v-.06h.06v-.06h.06v-.06h.05v-.06h.05v-.06h.05v-.06H292v-.06h0v-.06h.06v-.06h.06v-.06h.06V310h0V310h.05v-.06h.05v-.06h.05v-.06h.05v-.06h.06v-.06h.06v-.06h.06v-.06h.05v-.06h0v-.06h.05v-.06h.05v-.06h.05v-.06h.06v-.05h.06v-.06H293v-.06H293v-.06H293V309h0V309h.05v-.06h.05v-.06h.06v-.06h.06v-.06h.06v-.06h.05v-.06h.05v-.06h.05v-.06h0v-.06h.05v-.06h.06v-.06h.06v-.06h.06v-.06h0v-.06h.05v-.06h.05v-.06h.05V308H294v-.06H294v-.06h.06v-.06h.06v-.06h.05v-.06h0v-.06h.05v0h.05v-.06h.05v-.06h.06v-.06h.06v-.06h.06v-.06h.05v-.06h.05v-.06h0v-.06h.05v-.06h.05V307h.06V307h.06v-.06h.06v-.05h.05v-.06H295v-.06H295v-.06h0v-.06h.05v-.06h.06v-.06h.06v-.06h.06v-.06h.05v-.06h.05v-.06h.05v-.06h.05v-.06h0v-.06h.06v-.06h.06V306h.06v-.06h.05v-.06h0v-.06h.05v-.06h.05v-.06h.05Q291.55,245,287.17,183.15Zm-36.49,59.69q2.31-28.8,4.65-57.45c.24-2.95.49-5.35.83-7.25,3.64.6,4.52,4.59,5.17,14.25q1.8,25.83,3.59,51.51C260.18,243.52,255.43,243.15,250.68,242.84Z"/><path class="cls-1" d="M188.74,145.5q-11.2.09-22.41.68v0h-.05v0h-.05v.06h0v.05h-.05v.05h0v.06H166v.06h0v0h-.05v.06h-.05v.06h0v.05h-.05v.05h0v.06h0V147h0V147h-.05v.06h0v0h-.05v0h-.05v.06h0v.06h-.05v.05h0v.06h-.05v.06h0v0h-.05v0h0v.06h-.05v.05H165v.05h0v.06h0v0h0v.05h-.05V148h0v.06h-.05v.05h-.05v.06h0v.06h-.05v.05h0v.06h-.05v.06h0v0h-.05v0h0v.06h-.05v.05h-.05v.05h0v.06h0v0h0v0H164v.06h0V149h-.05V149h-.05v.06h0v.06h-.05v.05h0v.05h-.05v.06h0v.05h-.05v0h0v.06h-.05v.05h-.05v.05h0v.06h0v.06h-.05v0h-.05v.06h0v.06h-.05v.05h0V150h-.05v.06H163v0h0v0h-.05v.06h0v.05h-.05v.05h0v.06h-.05v.06h-.05v.05h0v.06h0v.06h-.05v0h-.05v.06h0v.06h-.05v.05h0v.05h-.05V151h-.05v0h0v0h-.05v.06h0v.05H162v.05h0v.06h-.05v.06h-.05v0h0v.06h0v.06h-.05v.05h-.05v0h0v.06h-.05v.05h0v.05h-.05v.06h-.05v0h0l.36,156.84q24.73-.34,49.47,0v-.05h0v-.06h.05v-.06h0v-.05h.05v-.06h0v-.06h.05v-.06h.05v-.06h0v-.06h.05v-.06h0v-.05h0v-.06h0V308h.05v-.05h0v-.06H212v-.06H212v-.05h0v-.06h.05v-.06h0v0h.05v-.06h0v-.06h.05v-.06h.05v-.05h0v-.06h.05v-.06h0v-.05h0v-.06h0v-.06h.05V307h0V307h.05v-.06h.05v-.05h0v-.06h.05v-.06h0v-.06H213v-.05h0v-.06h.05v-.06h0v-.05h.05v-.06h.05v-.06h0v0h0v-.06h0v-.06h.05v-.05h0v-.06h.05V306h.05v-.06h0v-.06h.05v-.06h0v-.06h.05v0h0v-.06h.05v-.06h0v-.05H214v-.06H214v-.06h0v-.05h0v-.06h0v-.06h.05v-.05h0v-.06h.05v-.06h.05V305h0v0h.05v-.06h0v-.06h.05v-.05h0v-.06h.05v-.06h0v-.05h.05v-.06h.05v-.06h0v0h0v-.06h.05v-.06H215v-.06h0v-.06h.05v-.06h0v-.06h.05v-.05h.05V304h0V304h.05v-.05h0v-.06h.05v-.06h0v0h.05v-.06h.05v-.06h0v-.06h0v-.06h.05v-.06h.05v-.06h0v-.05h.05v-.06h0v-.06H216v0H216v-.06h0V303h.05V303h0l.06-25.22q-13.71-.25-27.43-.21Z"/><path class="cls-1" d="M56.13,253.64l0,0,0-.06.05-.06,0-.05,0-.06.05-.06,0-.05.05-.06,0-.06,0,0,.05-.06,0-.06,0-.05.05-.06,0-.06,0-.06.05,0,0-.06.05-.06,0-.05,0-.06.05-.06,0,0,0-.06.05-.06,0-.05.05-.06,0-.06,0-.06.05-.05,0-.06,0-.06.05,0,0-.06.05-.06,0-.05,0-.06,0-.06.05,0,0-.06.05-.06a.12.12,0,0,1,0-.05l0-.06,0-.06,0-.06,0-.05.05-.06,0-.06.05,0,0-.06,0-.06,0-.05.05-.06,0-.06.05-.06,0,0,0-.06.05-.06,0-.05,0-.06.05-.06,0,0,.05-.06,0-.06,0-.05.05-.06,0-.06,0-.05.05-.06,0-.06.05-.06,0,0,0-.06.05-.06,0-.05,0-.06.05-.06,0,0,0-.06.05-.06,0-.05.05-.06,0-.06,0,0,.05-.06,0-.06,0-.06.05-.05,0-.06.05-.06,0-.05,0-.06,0-.06.05,0,0-.06.05-.06,0-.06,0-.05c5-5.88,7.16-13.93,7.1-22.5q-.12-17.94-.25-35.89c-.09-15.12-7.23-26.69-24.26-21.31Q24,174.49,4.92,182.26v0l0,0v0l0,0v0l0,0v0l0,0v0l-.05,0v0l0,0v0l0,0v0l0,0v0l0,0v0l0,0v0l-.05,0v0l0,0v0h0v0l0,0v0l0,0v0l-.05,0v0l0,0v0l0,0v0l0,0v0l0,0v0l-.05,0v0l0,0v0l-.05,0v0l0,0v0l0,0v0l0,0v0l-.05,0v0l0,0v0H3.51v0l0,0v0l0,0v0l-.05,0v0l0,0v0l0,0v0l0,0v0l-.05,0v0l0,0v0l-.05,0v0l0,0v0l0,0v0l0,0v0H2.88v0l0,0v0l-.05,0v0l0,0v0l0,0v0l-.05,0v0l0,0v0l0,0v0l0,0v0l-.05,0v0l0,0v0l-.05,0v0l0,0v0h0v0l-.05,0v0l0,0v0l0,0v0l-.05,0v0l0,0v0l-.05,0v0l-.05,0v0l0,0v0l-.05,0v0l0,0v0l-.05,0v0l-.05,0v0l0,0v0l-.05,0v0l-.05,0v0H1.46v0l-.05,0v0l0,0v0l-.05,0v0l-.05,0v0l-.05,0v0l-.05,0v0l0,0v0l-.05,0v0l-.05,0v0l0,0v0l0,0v0l-.05,0v0H.83v0l0,0v0l-.05,0v0l0,0v0l-.05,0v0l0,0v0l0,0v0l-.05,0v0l0,0v0l0,0v0l0,0v0l-.05,0v0l0,0v0h0v0l-.05,0v0l0,0v0l0,0v0l0,0V318.19q10.89-1.12,21.81-2.12V316h.05V316h.05v-.06H22v0H22v0h.05v0h.05v-.05h0v-.05h.05v-.05h.05v-.05h.05v-.05h.05v-.05h0v-.06h.05v-.05h0v0h.05v-.06h.05v-.05h.05v-.05h.05V315h0v-.05h.05v-.05h0v-.05h.05v-.05h.05v-.05H23v-.05H23v-.06h0v0h.05v0h.05v-.06h0v-.05h.05v-.05h.05v-.06h.05v-.05h.05v-.05h0v-.05h.05V314h.05v0h.05v0h.05v-.06h.05v-.05h.05v-.05h0v-.06h.05v-.05h.05v-.05H24v-.06H24v-.05h.05v-.05h.05v-.05h0v0h.05v0h.05v-.05h.05v-.05h.05v-.05h0V313h.05v-.06h0v-.05h.05v-.05h.05v-.06h.05v0h.05v0h0v-.06h.05v-.05h0v-.05h.05v-.05h.05v-.05H25v-.05H25v-.05h0v-.06h.05v-.05h0v-.05h0V312h.05v0h.05v-.05h.05v-.06h.05v-.05h0v-.05h.05v-.05h0v-.05h.05v-.05h.05v-.05h.05v-.06h.05v0h0v0h.05v-.06h.05v-.05h0v-.05H26v-.06h.05v-.05h.05V311h0V311h.05v-.05h.05v-.05h.05v-.05h0v0h.05v-.05h.05v-.05h0v-.06h.05v-.05h.05v-.05h.05v-.06h.05v-.05h.05q-.07-22.65-.17-45.32c4.17-.75,8.34-1.49,12.52-2.18,7.53-1.2,13.09-4.48,17-9.06l0-.06ZM33.38,198.18c6.56-1.88,7.66,1,7.68,5.87q.09,13.86.17,27.73A17.9,17.9,0,0,1,41,234.9a15.07,15.07,0,0,1-2.48.71c-4,.86-8.06,1.74-12.07,2.67l-.15-38Q29.84,199.21,33.38,198.18Z"/><path class="cls-1" d="M278,361l.05-.06,0-.06.05-.05.05-.06,0-.06s0,0,0-.05l.05-.06.05-.06.05,0,.05-.06,0-.06.05-.06,0-.05.05-.06.05-.06,0-.05.05-.06.05-.06.05-.05.05-.06,0-.06.05,0,.05-.06.05-.06,0-.06.05-.05.05-.06.05-.06,0-.05.05-.06.05-.06.05,0,.05-.06,0-.06.05-.05.05-.06,0-.06,0-.05.05-.06.05-.06.05-.06.05-.05,0-.06.05-.06,0-.05.05-.06,0-.06.05-.05.05-.06.05-.06.05-.05,0-.06,0-.06.05,0,.05-.06.05-.06,0-.06s0,0,.05-.05l.05-.06.05-.06,0-.05.05-.06.05-.06.05-.05.05-.06,0-.06.05-.05.05-.06,0-.06,0-.06.05-.05.05-.06.05-.06.05-.05,0-.06.05-.06,0,0,.05-.06,0-.06.05-.05.05-.06.05-.06.05-.06,0-.05,0-.06.05-.06s0,0,.05-.05l0-.06.05-.06s0,0,.05-.05l.05-.06.05-.06,0-.05.05-.06.05-.06.05-.06.05-.05,0-.06.05-.06a11,11,0,0,0,2.17-6.75c0-1,0-2,0-3l-5.82-.07v.06h-.05v.06h-.05v0h0v.06H279v.06h-.05v.05h-.05v.06h-.05V346h0v.05h-.05v.06h-.05v.06h-.05v.06h0v0h-.05v.06h-.05v.06h-.05v.05h0v.06h-.05v.06h-.05v.05h-.05v.06h-.05v.06h0v.05h-.05v.06h-.05v.06h0V347h0V347h-.05v.06h-.05v.06h-.05v.05h-.05v.06h0v.06h-.05v.05h0v.06h-.05v.06h-.05v0h0v.06h-.05v.06h-.05v.06h-.05v.06h-.05v.06h0v.06h-.05v.05h-.05V348h-.05v.06h0v.05H277v.06h-.05v.06h-.05v0h0v.06h-.05v.06h-.05v.06h-.05v.06h-.05v.06h0v.06h-.05v.05h-.05v.06h0v.06h0v0h-.05v.06h-.05V349h-.05V349h-.05v.06h0v.06h-.05v.05h0v.06H276v.06h0v.06h-.05v.05h-.05v.06h-.05v.06h-.05v.05h0v.06h0v.06h-.05v.05h-.05v.06h-.05v.06h0v.05h-.05V350h-.05V350h-.05v.06h0v.06h-.05v.06h-.05v.06h-.05v.05h-.05v.06h0v.06H275v.05h-.05v.06h0v.06h0v.05h-.05v.06h-.05v.06h-.05v.06h-.05v.06h0V351h-.05V351h0v.05h-.05v.06h0v.06h-.05v.05h-.05v.06h0a3.94,3.94,0,0,1-1.61-3.55c0-2.53,0-5.07,0-7.61l6.29.13v-.06h0v-.06h0v-.05h.05V340h.05V340h.05v-.06h.05v-.06h0v-.06h.05v-.06h.05v-.06h0v-.06h0v-.06h.05v-.05h.05v-.06h.05v-.06h.05v0h0v-.06h0v-.06h0v-.05h.05v-.06H280v-.06h0V339h.05V339h.05v-.06h.05v-.06h0v-.05h0v-.06h.05v-.06h.05v-.05h.05v-.06h0v-.06h.05v-.05h.05v-.06h0v-.06h0v-.06h.05v-.06h.05v-.06h.05v-.06h.05v0h0V338H281v-.06h0v-.05h0v-.06h0v-.06h.05v-.05h.05v-.06h.05v-.06h.05v-.06h0v-.06h0v-.06h0v-.06h.05v-.06h0v-.06h.05v-.06h.05v-.05h.05v-.06h.05V337h0V337h0v-.06h.05v-.06h.05v0H282v-.06h0v-.06h.05v-.06h.05v-.06h.05v-.06h0v-.06h.05v-.05h.05v-.06h.05v-.06h.05v0h0v-.06h.05v-.06h0v-.05h0V336h0v-.06h.05v-.06h.05v-.06h.05v-.06h.05v-.06h0v-.05h0v-.06h0v-.06H283v0h0v-.06h.05v-.06h.05v-.05h.05v-.06h.05v-.06h0v-.06h0v-.06h.05V335h.05V335h0v-.06h.05v-.06h.05v-.06h.05v-.05h0v-.06h0v-.06h.05v-.05h.05v-.06h.05c0-2.16,0-4.31,0-6.47-3.72-.11-7.45-.21-11.17-.3,0-3.73,0-7.46.07-11.19l-5.93-.2v.06h-.05v.06h-.05v.06h-.05v.05h0v.06h-.05v.06h-.05v.05h0v.06h0v.06h-.05v.06h-.05V317h-.05V317h-.05v.06h0v.06h-.05v.06h0v.06h0v.06h0v.06h-.05v.06H266v.05H266v.06h-.05v.06h0v.05h0v.06h0v.06h-.05v.06h0v.06h-.05V318h-.05V318h-.05v.06h-.05v.06h0v.06h0v.05h-.05v.06h-.05v.06h0v0h-.05v.06h-.05v.06h-.05v.06H265v.06h0v.06h-.05v.06h-.05v.06h-.05v.06h-.05v.06h0V319h-.05V319h0v.06h0v.05h0v.06h-.05v.06h-.05v.05h-.05v.06h-.05v.06h0v.06h0v.06h0v.06h-.05v.06h0v.06h-.05v.06H264v.06H264v.05h-.05v.06h0V320h0v.05h-.05v.06h-.05v.06h0v.06h-.05v.06h-.05v.06h-.05v.06h0v.06h0v.06h-.05v.06h-.05v.05h-.05v.06h0v.06h-.05v.05h-.05v.06h0v.06h0V321h0V321h-.05v.06h-.05v.06h-.05v.06h-.05v.06h0v.06h0v.05h0v.06h-.05v.06h0v0h-.05v.06h-.05v.06h-.05v.06h-.05v0a8.6,8.6,0,0,0-8.55-6.6,8.15,8.15,0,0,0-7,3l0,.06-.05.06s0,0,0,.05l0,.06,0,.06-.05.05-.05.06,0,.06-.05.06,0,.05,0,.06,0,.06-.05,0,0,.06L246,319l-.05.05,0,.06-.05.06,0,.05-.05.06,0,.06-.05.06s0,0-.05.05l0,.06-.05.06s0,0,0,.05l-.05.06,0,.06-.05.05,0,.06-.05.06-.05.05,0,.06-.05.06,0,0-.05.06,0,.06-.05.06,0,.05-.05.06-.05.06,0,.05-.05.06,0,.06s0,0-.05.05l0,.06-.05.06-.05.05,0,.06-.05.06,0,.06,0,.05,0,.06-.05.06,0,.05-.05.06-.05.06,0,0,0,.06,0,.06-.05.05,0,.06-.05.06s0,0-.05.05l0,.06-.05.06,0,.06,0,0,0,.06-.05.06,0,.05-.05.06-.05.06,0,.05,0,.06-.05.06-.05.06a.12.12,0,0,0,0,.05l-.05.06,0,.06-.05,0-.05.06,0,.06-.05.05,0,.06-.05.06,0,.05-.05.06-.05.06,0,0-.05.06,0,.06-.05.06,0,.05-.05.06,0,.06-.05.05-.05.06,0,.06s0,0-.05.05a9,9,0,0,0-.9,1.4V325c0-4.93-2.48-10.21-9.11-10.33a8.38,8.38,0,0,0-6.53,2.51c-.21.22-.4.45-.59.69l0,.06s0,0-.05.05l-.09.12,0,.05-.05.06-.05.06,0,.05-.05.06,0,.06-.1.11-.05.06,0,.06-.1.11,0,.06-.05.05,0,.06-.05.06,0,0-.05.06-.05.06,0,.06-.05.05,0,.06-.09.11-.05.06,0,.06-.05.05-.05.06,0,.06-.05,0,0,.06-.05.06,0,.06a.12.12,0,0,0-.05.05l-.1.12-.05.05,0,.06-.09.11-.05.06,0,.06-.05.05-.05.06,0,.06-.05.05-.09.12,0,.06s0,0-.05.05l-.1.12s0,0-.05.05l0,.06,0,.06,0,.05-.05.06,0,.06-.1.11,0,.06-.05.06-.09.11,0,.06-.05.05,0,.06-.05.06-.05.05,0,.06-.09.11-.05.06,0,.06-.1.11-.05.06-.05.06,0,.05-.05.06,0,.06s0,0-.05.05l-.1.12-.05,0,0,.06-.09.12a.12.12,0,0,0-.05.05l0,.06-.05.06,0,.05-.05.06-.05.06a11.46,11.46,0,0,0-2.21,7.06L217.71,354c0,5,2.5,10.23,9.1,10.23a8.57,8.57,0,0,0,6.51-2.6l.05-.06,0,0,0-.06,0-.06s0,0,.05-.05l.05-.06,0-.06.05-.05,0-.06,0-.06,0-.06a.12.12,0,0,0,.05-.05l0-.06.05-.06.05,0,0-.06.05-.06,0-.05,0-.06,0-.06.05-.05,0-.06.05-.06.05,0,0-.06.05-.06,0-.06.05-.05,0-.06.05-.06.05-.05,0-.06.05-.06,0-.05.05-.06,0-.06.05,0,0-.06.05-.06.05-.06,0-.05.05-.06,0-.06.05-.05,0-.06.05-.06.05,0,0-.06.05-.06,0-.05.05-.06,0-.06s0,0,.05-.05l0-.06.05-.06.05-.06,0-.05,0-.06.05-.06.05-.05,0-.06.05-.06,0-.05.05-.06.05-.06,0-.06,0-.05,0-.06.05-.06,0,0,.05-.06.05-.06,0-.05,0-.06.05-.06.05-.05,0-.06.05-.06,0-.05.05-.06.05-.06,0-.06.05-.05,0-.06.05-.06,0-.05.05-.06.05-.06s0,0,0-.05l.05-.06,0-.06.05,0,0-.06.05-.06,0-.06s0,0,.05-.05l.05-.06,0-.06a.12.12,0,0,0,0-.05l.05-.06a8.41,8.41,0,0,0,1.33-1.86h0c0,4.93,2.48,10.14,9.08,10.14a8.5,8.5,0,0,0,7.06-3.2s0,0,.05-.05l0-.06.05-.06,0-.05.05-.06,0-.06.05-.05.05-.06.05-.06,0-.06.05-.05.05-.06.05-.06,0-.05.05-.06.05-.06.05-.05,0-.06.05-.06.05,0,.05-.06.05-.06,0-.06.05-.05.05-.06,0-.06.05-.05,0-.06.05-.06.05-.05.05-.06.05-.06s0,0,0-.05l0-.06.05-.06.05-.05,0-.06.05-.06.05-.06.05-.05.05-.06,0-.06.05,0,.05-.06.05-.06,0-.05.05-.06.05-.06.05-.05,0-.06.05-.06.05-.06.05,0,.05-.06,0-.06.05-.05.05-.06,0-.06,0-.05.05-.06.05-.06.05-.05.05-.06,0-.06.05,0,0-.06.05-.06.05-.06,0-.05.05-.06.05-.06.05-.05.05-.06,0-.06.05,0,.05-.06.05-.06,0-.06.05-.05.05-.06.05-.06,0-.05.05-.06.05-.06s0,0,.05-.05l.05-.06,0-.06.05,0,.05-.06,0-.06,0-.05.05-.06.05-.06.05-.06.05-.05,0-.06.05-.06,0,0,.05-.06,0-.06a9.25,9.25,0,0,0,1.29-2.24c0,.38,0,.76,0,1.13,0,4.86,2.47,10,9.07,10a8.57,8.57,0,0,0,7.06-3.14Zm-37.06-19.27a12.62,12.62,0,0,0,3.89,3.52h-.36v.06h-.05v0h0v.06h-.05v.06h0v.05h0v.06h-.05v.06h0v.05h-.05v.06h0v.06H244v.05h-.05v.06h0V346h0V346h-.05v.06h-.05v.06h0v.06h-.05v.05h0v.06h-.05v.06h0v.05h0v.06h-.05v.06h0v0h-.05v.06h0v.06h-.05v.06h-.05v.06h0v.06h0v.06H243V347H243v.06h0v.06h-.05v.05h0v.06h-.05v.06h0v.05h0v.06h0v.06h-.05v.05h-.05v.06h0v.06h-.05v.06h0v.05h0v.06h0v.06h-.05v0h-.05V348h0V348h-.05v.05h0v.06H242v.06h0v.05h0v.06h0v.06h-.05v.06h-.05v.05h0v.06h-.05v.06h0v.05h-.05v.06h0v.06h-.05v.05h-.05v.06h0v.06h-.05V349h0V349h-.05v.06h0v.06h0v.06h0v.06H241v.06H241v.05h0v.06h-.05v.06h0c0-.41.07-.82.07-1.22,0-1,0-2,0-3.08H238.1v-.05h.05v-.05h0V345h.05V345h0v-.06h.05v-.06h0v-.06h.05v-.06h.05v-.05h0v-.06h0v-.06h0v-.05h.05v-.06h0v-.06h.05v0h.05v-.06h0v-.06h.05v-.06h0v-.06H239v-.06h0V344h.05V344h0v-.06h.05v-.06h.05v-.05h0v-.06h0v-.06h0v-.05h.05v-.06h0v-.06h.05v-.05h.05v-.06h0v-.06h.05v-.06h0v-.05h.05v-.06h0v-.06h.05v0h0V343H240v-.06h.05v-.05h0v-.06h0v-.06h.05v-.05h.05v-.06h0v-.06h.05v-.06h0v-.06h.05v-.06h.05v-.06h0v-.05h.05v-.06h0v-.06h.05v-.05h0v-.06h.05V342h.05V342h0v-.06h0Zm-8,6v.06h-.05v.06h0v.06h-.05v0h0V348h-.05V348h-.05v.05h0v.06h0v.06h-.05v.05h-.05v.06h0v.06h-.05v.05h0v.06h-.05v.06h-.05v.06h0v.06h0v.06h-.05v.06H232v.05h0v.06h-.05v.06h0V349h-.05V349h0v.06h-.05v0h-.05v.06h0v.06h-.05v.05h0v.06h-.05v.06h-.05v.06h0v.05h0v.06h-.05v.06h-.05v.05h0v.06h-.05v.06h0v.05H231V350h0V350h-.05v.05h-.05v.06h0v.06h-.05v.06h0v.06h-.05v.06h-.05v.06h0v0h0v.06h-.05v.06h-.05v.05h0v.06h-.05v.06h0v.05h-.05v.06h0v.06h-.05v.15a4,4,0,0,1-1.59-3.47l4.41,0v0Zm-2.71-16.29c0,1.23,0,2.46,0,3.69l-1.62,0,0-7.26A4.11,4.11,0,0,1,230.23,331.38Zm20.34-3.13a4.12,4.12,0,0,1,1.5,3.51v.66c-1.38-1.24-1.51-2.14-1.51-3.94C250.56,328.4,250.57,328.32,250.57,328.25Zm-.1,20.84a3.06,3.06,0,0,1,1.35,2A3.29,3.29,0,0,1,250.47,349.09Zm8-12.28h0v-.06h.05v-.06h.05v-.06h0v-.06h.05v-.05h.05v-.06h.05v-.06h.05v-.05h0v-.06H259v-.06H259v-.05h0v-.06h0v-.06h.05V336h.05V336h.05v-.06h.05v-.06h0v0h.05v-.06h0v-.06h0v-.05h0v-.06h.05v-.06h.05v-.05h.05v-.06h.05v-.06h0v-.05h0v-.06h.05v-.06h.05v-.06H260v-.06h0V335h.05v-.06h.05v-.05h.05v-.06h0v-.06h.05v-.05h.05v-.06h.05v-.06h.05v0h0v-.06h.05v-.06h.05v-.06h0v-.06h0v-.06h.05v-.06h.05v-.05h.05v-.06h.05V334h0v0H261v-.06h0v-.06H261v-.05h0v-.06h.05v-.06h.05v-.06h.05v-.06h.05v-.06h0v-.06h0v-.05h.05v-.06h.05v-.06h0v0h.05v-.06h.05v-.06h.05v-.05h.05V333h0v-.06h0v-.05h.05v-.06h.05v-.06h0c0,2.57,0,5.13-.05,7.7A9.29,9.29,0,0,0,258.48,336.81Z"/><path class="cls-1" d="M326.83,313.77h0v-.06h0v-.06H327v-.06h0v-.06h.05v-.06h.05v-.06h.05v-.06h.05v-.06h0v-.06h0v-.06h.05v-.06h.05v-.06h0V313h.05V313h.05v-.06h.05v-.06h0v-.06h0v-.06h.05v-.06h.05v-.06h.05v-.06h0v-.06H328v-.06H328v-.06h0v-.06h0v-.06h.05v-.06h.05v-.06h.05v-.06h.05v-.06h0V312h.05V312h0v-.06h0v-.06h0v-.06h.05v-.06h.05v-.06h.05v-.06h.05v-.06h0v-.06h0v-.07h0v-.06h.05v-.06H329v-.06h0v-.06h.05v-.06h.05v-.06h.05V311h0V311h0v-.06h.05v-.06h.05v-.06h.05v-.06h0v-.06h.05v-.06h.05v-.06h0v-.06h0v-.06h.05v-.06h.05v-.06h.05v-.06h.05v-.06h0v-.06H330v-.06h0v-.06h0V310h0V310h.05v-.06h.05v-.06h.05v-.06h.05v-.06h0v-.06h0v-.06h0v-.06h.05v-.06h0v-.06h.05v-.06h.05v-.06h.05v-.06h.05v-.06h0v-.06h0v-.06h.05V309h.05V309H331v-.06h0v-.06h.05v-.06h.05v-.06h0v-.06h0v-.06h.05v-.06h.05v-.06h.05v-.06h.05v-.06h0v-.06h.05v-.06h0v-.06h0v-.06h0v-.06h.05v-.06h.05l.3-47,.66.1c7.87,1.32,9.79,7.67,11.18,16.71q2.94,19.08,5.91,37.79,10.92,1,21.82,2.07v-.06h.06v-.06h.06v-.06h.06v-.06h.05v-.06h.06v-.06h.06v-.07H372v-.06H372v-.06h.06v-.07h.06v-.06h.06v-.06h.05V317h.06V317h.06v-.06h.06v-.07h.06v-.06h.06v-.06h.06v-.06h.06v-.07h0v-.06h.06v-.06h.06v-.07h.06v-.06h.06v-.06h.06v-.07h.06v-.06h.06v-.06H373v-.07H373v-.06h.06V316h.06V316h.06v-.06h.06v-.06h.06v-.06h.06v-.07h.05v-.06h.06v-.06h.06v-.07h.06v-.06h.06v-.06h.06v-.07h.06v-.06h.06v-.06h.05v-.06h.06v-.06h.06v-.06h.06v-.06H374V315H374v-.06h.06v-.06h.06v-.07h0v-.06h.06v-.06h.06v-.07h.06v-.06h.06v-.06h.06v-.06h.06v-.06h.06v-.06h.05v-.06h.06v-.06h.06v-.06h.06v-.06h.06v-.07h.06V314h.06V314h.06v-.07h.05v-.06H375v-.06H375v-.07h.06v-.06h.06v-.06h.06v-.06h.06v-.06h.06v-.06h.05v-.06h.06v-.07h.06v-.06h.06v-.06h.06v-.07h.06v-.06h.06v-.06h.06V313h0V313h.06v-.06h.06v-.06h.06v-.06h.06v-.06H376v-.06H376v-.07h.06v-.06h.05v-.06h.06v-.07h.06v-.06h.06v-.06h.06v-.07h.06v-.06h.06v-.06h.06v-.07h.05V312h.06q-2.93-18.57-5.82-37.6c-1.57-10.18-3.26-18.78-7.56-23.33a13,13,0,0,0,1.1-1.13l.05-.06,0,0,0-.06.05-.06.05-.05.05-.06.05-.06,0-.05.05-.06,0-.06.05-.06,0,0,.05-.06.05-.06.05-.05.05-.06,0-.06,0,0,.05-.06.05-.06,0-.05.05-.06.05-.06.05,0,.05-.06,0-.06.05-.06.05-.05.05-.06.05-.06,0-.05.05-.06.05-.06,0,0,0-.06.05-.06.05-.05.05-.06.05-.06,0-.06.05,0,0-.06.05-.06a.12.12,0,0,0,0-.05l.05-.06.05-.06.05-.05.05-.06,0-.06,0-.05.05-.06.05-.06,0-.05.05-.06.05-.06.05-.06.05,0,0-.06.05-.06.05-.05.05-.06,0-.06.05,0,.05-.06.05-.06,0-.05,0-.06.05-.06.05-.06.05-.05.05-.06,0-.06.05,0,0-.06.05-.06,0-.05.05-.06.05-.06s0,0,.05,0l.05-.06,0-.06,0-.06.05-.05.05-.06,0-.06s0,0,.05,0l.05-.06.05-.06.05-.05,0-.06.05-.06.05-.05.05-.06,0-.06.05-.06.05,0,.05-.06,0-.06.05-.05.05-.06c3.52-4,4.49-10.22,4.5-15.84l0-23.25c0-13.58-6.71-28.35-23.63-34.19q-19.41-6.48-39.2-11.31v.07h-.05v.07h0v.07l-.05,0v.07h-.05V160h-.05v.07l0,0v.07h-.05v.07h-.05v.07h-.05v.06h-.05v.07h0v.07h-.05v.07l-.05,0v.07h0v.07h0v.07l-.05,0v.07H310v.07H310v.07l-.05,0v.07h0v.07h-.05V161l0,0V161h-.05v.07h0v.07h-.05v.06h-.05v.07h-.05v.07h-.05v.07l0,0v.07h0v.07h-.05v.07l-.05,0v.07h0v.07h-.05v.07l-.05,0v.07h-.05v.07H309v.07h0v.06h-.05V162h-.05v.07h-.05v.07l-.05,0v.07h0v.07h-.05v.07l-.05,0v.07h0v.07h0v.07l-.05,0v.07h-.05v.07h-.05v.07h-.05v.06h0v.07h-.05v.07h0v.07l-.05,0v.07h0V163h-.05V163l-.05,0v.07H308v.07h-.05v.07l0,0v.07h0v.07h-.05v.07l-.05,0v.07h0v.07h-.05v.07h-.05v.06h-.05v.07h-.05v.07h0v.07l-.05,0v.07h-.05v.07h-.05v.07l0,0V164h-.05V164h-.05v.07l-.05,0v.07h0v.07h0v.07h-.05v.06h-.05v.07h-.05v.07h-.05v.07l0,0v.07h-.05v.07h0v.07l-.05,0v.07h0v.07h-.05v.07l-.05,0v.07h-.05V165h-.05V165h0v.06h0v.07h-.05v.07h-.05v.07l0,0v.07h-.05v.07H306v.07l-.05,0v.07h-.05q-.51,73.43-1,146.85,11,.69,22,1.53Zm12.85-116.29c6.56,1.87,7.6,5.27,7.58,10q0,10-.1,20.06a26.67,26.67,0,0,1-.65,6.28,13.94,13.94,0,0,1-6.06-.15c-2.74-.56-5.47-1.1-8.22-1.62l.24-36.59C334.87,196.14,337.28,196.8,339.68,197.48Z"/><path class="cls-1" d="M184.11,145.21h0a.13.13,0,0,1,0-.06h0a.09.09,0,0,1,0-.05h0a.13.13,0,0,1,0-.06h0V145h0v0h0a.07.07,0,0,0,0,0h0a.13.13,0,0,0,0-.06h0s0,0,0-.05h0a.09.09,0,0,1,0-.05h0a.13.13,0,0,1,0-.06h0a.13.13,0,0,1,0-.06h0v-.05h.05v-.06h0a.13.13,0,0,0,0-.06h0a.09.09,0,0,0,0,0h0s0,0,0-.06h0a.13.13,0,0,1,0-.06h0a.09.09,0,0,1,0-.05h0a.11.11,0,0,1,0-.05h0v-.06h0v0h0a.09.09,0,0,0,0,0h0a.13.13,0,0,0,0-.06h0s0,0,0-.05h0a.09.09,0,0,1,0-.05h0a.13.13,0,0,1,0-.06h0a.13.13,0,0,1,0-.06h0v0h.05v-.06h0a.13.13,0,0,0,0-.06h0a.09.09,0,0,0,0-.05h0s0,0,0-.05h0a.13.13,0,0,1,0-.06h0a.07.07,0,0,1,0-.05h0a.11.11,0,0,1,0-.05h0v-.06h0v0h0a.09.09,0,0,0,0,0h0a.13.13,0,0,0,0-.06h0a.13.13,0,0,0,0-.06h0a.09.09,0,0,1,0-.05h0a.13.13,0,0,1,0-.06h0a.13.13,0,0,1,0-.06h0v0h.05v-.06h0a.13.13,0,0,0,0-.06h0a.09.09,0,0,0,0-.05h0a.07.07,0,0,0,0-.05h0a.13.13,0,0,1,0-.06h0a.07.07,0,0,1,0,0h0a.09.09,0,0,1,0-.05h0v-.06h.05v-.06h0a.09.09,0,0,0,0-.05h0a.13.13,0,0,0,0-.06h0s0,0,0-.06h0a.09.09,0,0,1,0-.05h0a.13.13,0,0,1,0-.06h0a.13.13,0,0,1,0-.06h0v0h.05v0h0a.13.13,0,0,0,0-.06h0a.11.11,0,0,0,0-.05h0s0,0,0-.05h0a.13.13,0,0,1,0-.06h0a.07.07,0,0,1,0,0h0a.09.09,0,0,1,0,0h0v-.06h.05v-.06h0a.09.09,0,0,0,0-.05h0a.13.13,0,0,0,0-.06h0s0,0,0-.06h0s0,0,0-.05h0a.11.11,0,0,1,0-.05h0a.13.13,0,0,1,0-.06h0v-.05h.05v0h0a.13.13,0,0,0,0-.06h0a.11.11,0,0,0,0-.05h0s0,0,0-.05h0a.13.13,0,0,1,0-.06h0a.13.13,0,0,1,0-.06h0a.09.09,0,0,1,0,0h0v-.06h.05v-.06h0a.09.09,0,0,0,0-.05h0a.13.13,0,0,0,0-.06h0a.13.13,0,0,0,0-.06h0a.09.09,0,0,1,0,0h0a.11.11,0,0,1,0,0h0a.13.13,0,0,1,0-.06h0V140h0v-.05h0a.13.13,0,0,0,0-.06h0a.13.13,0,0,0,0-.06h0a.09.09,0,0,0,0-.05h0a.13.13,0,0,1,0-.06h0a.13.13,0,0,1,0-.06h0a.09.09,0,0,1,0,0h0v-.06H189c1.29-5.21-7.17-8.62-8.21-10.83-9.09-19.33-14.88-67.74-12.39-77.38,5.62-1.69,11.36-3.15,16.64-4.5,8.6-2.2,13.37-5.2,16-8.26l.05-.06,0-.05.05-.06,0-.06.05,0,0-.06.05-.06,0,0,.05-.06.05-.06,0-.06.05-.05,0-.06.05-.06,0,0,.05-.06.05-.06,0,0,.05-.06,0-.06.05,0,0-.06.05-.06,0-.06.05,0,.05-.06,0-.06.05,0,0-.06.05-.06,0-.05.05-.06,0-.06a.12.12,0,0,1,.05-.05l.05-.06,0-.06,0,0,0-.06.05-.06,0-.06.05-.05.05-.06,0-.06,0-.05.05-.06.05-.06s0,0,0,0l.05-.06,0-.06.05-.06.05-.05,0-.06,0-.05,0-.06.05-.06,0-.06.05,0,.05-.06,0-.06,0,0,.05-.06.05-.06,0-.05.05-.06,0-.06.05-.06.05,0,0-.06,0-.06.05,0,.05-.06,0-.06.05-.05,0-.06.05-.06.05-.05,0-.06.05-.06,0,0,.05-.06,0-.06.05-.06.05-.05,0-.06,0-.06.05-.05.05-.06,0-.06.05,0,0-.06.05-.06,0,0,.05-.06.05-.06,0-.06.05,0,0-.06.05-.06.05,0,0-.06a12.33,12.33,0,0,0,2.66-10.65c-.77-4.7-15.24-7.39-20.54-9.3s-5.83-9.39-7.52-11.07-5.23-.66-6.51.78l-.05.06,0,0-.05.06,0,.06s0,0-.05,0h0c-1.14,1.25-9.33,2-15.38,3.12-4.28.81-13.61,3.24-14.85,4.83h0a.12.12,0,0,0-.05.05h0l-.05,0h0s0,0,0,0h0l-.05.05h0l0,0h0l-.05,0h0s0,0,0,.05h0l-.05,0h0l0,0h0s0,0-.05.05h0l-.05,0h0s0,0,0,0h0l-.05.05h0l0,.05h0l-.05,0h0s0,0,0,0h0a.12.12,0,0,0-.05.05h0l-.05,0h0s0,0,0,0h0s0,0-.05.05h0l0,0h0a.12.12,0,0,1-.05,0h0s0,0,0,.05h0l-.05,0h0l0,0h0s0,0-.05.05h0l-.05.05h0l0,0h0l-.05.05h0l0,.05h0l-.05,0h0s0,0,0,.05h0a.12.12,0,0,0-.05.05h0l0,0h0l-.05.05h0s0,0-.05.05h0l0,0h0a.12.12,0,0,1-.05,0h0s0,0,0,.05h0l-.05,0v0l0,0h0s0,0-.05.05h0c-3.91-1.06-10.25-1.79-19.6-.14C104.14,16.25,88,29.56,82.27,35.69c.16-3.34,1.87-6.9,4.17-10h0s0,0,0,0h0l.06-.06h0l.06-.06h0l0-.05h0l.05-.06h0l0-.06h0l0-.06h0l0-.06h0l.06-.06h0l.06-.06h0l.06-.05h0L87,25h0l0-.06h0s0,0,.05,0h0l0-.06h0l0-.06h0l.06-.05h0l.06-.06h0l.06-.06h0l0-.05h0l0-.06h0l.05-.06h0l0-.06h0l0-.06h0l.06-.06h0l.06-.06h0l.06-.05h0l0-.06h0l0-.06h0s0,0,.05,0h0L88,24h0l0-.06h0l.06-.05h0l.06-.06h0l.06-.06h0l0-.06h0l0-.06h0l.05-.06h0l0-.06h0l0,0h0l.06-.06h0l.06-.06h0l.06-.05h0l0-.06h0l0-.06h0s0,0,.05,0h0l0-.06h0l0-.06h0l.06-.06h0l.06-.06h0l.06-.06h0l0-.06h0l0-.06C75.37,25.11,45.38,43,21.73,71.1l-.05.06-.05,0-.05.06,0,.06-.05,0,0,.06-.05.06-.05,0-.05.06-.05.06,0,0-.05.06,0,.06-.05.06L21,72,21,72l-.05.06,0,.05-.05.06-.05.06,0,.05-.05.06-.05.06-.05.06,0,0-.05.06-.05,0-.05.06-.05.06,0,.06-.05,0,0,.06-.05.06-.05,0-.05.06-.05.06,0,0-.05.06-.05.06,0,.05-.05.06-.05.06-.05.06-.05,0,0,.06,0,.06,0,0-.05.06-.05.06-.05.06-.05,0,0,.06,0,0,0,.06-.05.06-.05,0-.05.06-.05.06,0,0-.05.06,0,.06-.05.06-.05.05-.05.06-.05.06,0,0-.05.06-.05.06-.05.06,0,0-.05.06-.05.06,0,0-.05.06-.05,0-.05.06,0,.06-.05.06-.05,0-.05.06,0,.06-.05.05-.05.06-.05.06,0,.06-.05,0-.05.06,0,.06-.05,0-.05.06-.05.06-.05,0,0,.06,0,.06,0,0-.05.06-.05.06-.05.06-.05,0,0,.06c-.77.92-1.55,1.86-2.31,2.8-24,29.76-10.88,106.17-10.88,106.17s27-8.72,29.88-9.55a2.46,2.46,0,0,0,1.27-.84l0-.06,0-.05.05-.06,0-.06s0,0,0,0l.05-.06,0-.06.05-.05,0-.06,0-.06.05-.05,0-.06,0-.06.05-.06,0,0,.05-.06,0-.06s0,0,0-.05l.05-.06,0-.06,0,0,.05-.06,0-.06,0-.05L36,174l0-.06.05,0,0-.06,0-.06.05-.06,0,0,0-.06.05-.06s0,0,0-.05l.05-.06,0-.06,0,0,0-.06.05-.06,0-.05.05-.06,0-.06,0-.06,0,0,0-.06,0-.06s0,0,.05-.05l0-.06.05-.06s0,0,0-.05l0-.06,0-.06,0,0,0-.06.05-.06,0-.06.05-.05,0-.06,0-.06,0,0,.05-.06,0-.06.05-.05,0-.06,0-.06.05,0,0-.06,0-.06.05-.05,0-.06.05-.06,0-.06,0-.05.05-.06,0-.06,0,0,.05-.06,0-.06s0,0,0-.05l.05-.06,0-.06.05,0,0-.06,0-.06.05-.06a.12.12,0,0,0,0-.05l0-.06.05-.06,0-.05.05-.06,0-.06,0-.05.05-.06,0-.06s0,0,0-.05l.05-.06,0-.06.05-.06,0,0,0-.06c1.35-1.6.44-4.93-2.52-6.93s8-28.95,16.07-39.73c4.6-3.41,17.45-8.64,29-11.07C72.82,114.45,62,119.26,55.65,125h0l-.06,0h0l0,0v0l-.05,0h0l0,.05h0l-.05,0v0l0,0h0s0,0,0,.05h0l-.06,0v0l-.06,0h0s0,0,0,0h0l-.05,0h0l0,0v0l0,0h0l-.05,0h0l0,0v0l-.06,0h0l-.06,0h0l0,0v0l-.05,0h0l0,0h0a.1.1,0,0,1,0,0v0l-.05,0h0l0,0h0l-.06.05h0l-.05,0h0s0,0,0,.05h0s0,0,0,0h0l-.05,0v0l0,0h0l-.05,0h0l0,0v0l-.06,0h0l-.05,0h0l0,0v0l0,0h0l-.05,0h0s0,0,0,0h0l-.05,0h0l0,0h0l-.06,0h0l-.06,0v0a.1.1,0,0,0,0,0h0s0,0,0,0h0l-.05,0v0l0,0h0s0,0-.05.05h0l0,0v0l-.06,0h0l-.06,0h0l-.05,0v0l0,0h0l-.05,0h0s0,0,0,.05h0l0,0v0l-.05,0h0l-.06.05h0l-.06,0v0l-.05,0h0l0,0h0l-.05,0v0l0,0h0s0,0,0,.05h0a.1.1,0,0,1-.05,0v0l-.06,0h0l-.06,0h0l-.05,0h0l0,0h0l0,.05h0l-.05.05h0l0,0v0l-.05,0h0l-.06,0h0l-.06,0v0l-.05,0h0s0,0,0,.05h0l0,0v0l-.05,0h0s0,0,0,.05h0s0,0-.05.05h0l-.06,0h0l0,0h0l-.05,0h0l0,0v0l0,0h0l-.05.05h0l0,0v0l-.05,0h0l-.06,0h0l-.06,0v0l0,0h0s0,0-.05.05h0l0,0v0l-.05,0h0l0,0h0s0,0,0,.05h0l-.06,0v0l-.06,0h0s0,0,0,.05h0l-.05,0v0l0,0h0s0,0-.05.05c2,8.77,29.42,40.64,33.63,39.21,4.36-4.68,7.22-9,15.59-12.16l0,0,.06,0a0,0,0,0,0,0,0l.06,0v0l.06,0v0l.06,0s0,0,0,0l.06,0s0,0,0,0l.06,0s0,0,0,0l.06,0,0,0,.07,0,0,0,.07,0,0,0,.06,0s0,0,0,0l.06,0s0,0,0,0l.06,0s0,0,0,0l.06,0v0l.06,0s0,0,0,0l.06,0,0,0,.07,0,0,0,.07,0,0,0,.06,0v0l.06,0v0l.06,0s0,0,0,0l.06,0v0l.06,0a0,0,0,0,1,0,0l.06,0,0,0,.07,0,0,0,.07,0,0,0,.06,0s0,0,0,0l.06,0s0,0,0,0l.06,0s0,0,0,0l.06,0s0,0,0,0l.06,0a.06.06,0,0,1,0,0l.06,0,0,0,.07,0,0,0,.07,0,0,0,.06,0s0,0,0,0l.06,0v0l.06,0s0,0,0,0l.06,0s0,0,0,0l.06,0a0,0,0,0,1,0,0l.06,0,0,0,.07,0,0,0,.07,0,0,0,.06,0v0l.06,0v0l.06,0s0,0,0,0l.06,0s0,0,0,0l.06,0a.06.06,0,0,1,0,0l.06,0,0,0,.07,0,0,0,.06,0a.06.06,0,0,0,0,0l.06,0s0,0,0,0l.06,0s0,0,0,0l.06,0v0l.06,0s0,0,0,0l.06,0s0,0,0,0l.06,0,0,0,.07,0,0,0,.06,0a0,0,0,0,0,0,0l.06,0v0l.06,0s0,0,0,0l.06,0s0,0,0,0l.06,0s0,0,0,0l.06,0s0,0,0,0l.06,0,0,0,.07,0,0,0,.07,0,0,0,.06,0s0,0,0,0l.06,0s0,0,0,0l.06,0s0,0,0,0l.06,0v0l.06,0a0,0,0,0,1,0,0l.06,0,0,0,.07,0,0,0,.07,0,0,0,.06,0v0l.06,0s0,0,0,0l.06,0s0,0,0,0l.06,0s0,0,0,0l.06,0a.06.06,0,0,1,0,0l.06,0,0,0,.07,0,0,0,.07,0,0,0,.06,0s0,0,0,0l.06,0s0,0,0,0l.06,0s0,0,0,0l.06,0v0l.06,0a0,0,0,0,1,0,0l.06,0,0,0,.07,0,0,0,.07,0,0,0,.06,0s0,0,0,0l.06,0s0,0,0,0l.06,0s0,0,0,0l.06,0s0,0,0,0l.06,0s0,0,0,0l.06,0,0,0,.07,0,0,0,.07,0,0,0,.06,0s0,0,0,0l.06,0s0,0,0,0l.06,0v0l.06,0c-1.8-5.56-7.84-1.8-8.81-3.29-2.62-9.44-8.31-22.17-3.11-38.68,4.1-.45,6.67-.3,6.32.76,0,0,6.91,31.2,14.73,37.2a25.73,25.73,0,0,1,9-.11,38.51,38.51,0,0,0-8.14.45,45,45,0,0,0-6.15,1.5,37.12,37.12,0,0,0-18,12l0,.06,0,.06a.12.12,0,0,0-.05,0l0,.06,0,.06,0,.05,0,.06-.05.06,0,.05,0,.06-.05.06,0,.05,0,.06,0,.06,0,.06-.05.05,0,.06,0,.06-.05,0,0,.06,0,.06,0,.05,0,.06-.05.06,0,.06a.12.12,0,0,0,0,0l-.05.06,0,.06s0,0,0,.05l0,.06,0,.06-.05.05,0,.06,0,.06-.05,0,0,.06,0,.06s0,0,0,.05l0,.06-.05.06,0,.06,0,0,0,.06-.05.06,0,.05,0,.06,0,.06,0,0,0,.06,0,.06s0,0,0,.05l-.05.06,0,.06s0,0,0,.05l0,.06,0,.06,0,.06,0,0,0,.06-.05.06,0,.05,0,.06,0,.06,0,0,0,.06,0,.06,0,.05-.05.06,0,.06,0,.06,0,.05,0,.06,0,.06,0,0,0,.06-.05.06,0,.05,0,.06,0,.06,0,0,0,.06,0,.06,0,.05,0,.06-.05.06,0,.06,0,0,0,.06,0,.06,0,.05,0,.06,0,.06-.05.05,0,.06,0,.06,0,.06,0,0,0,.06a41,41,0,0,0-6.36,10.87,48.48,48.48,0,0,0-3.47,18.36q.28,41.19.58,82.38c.12,17.35,9.61,35.1,34.18,34.24,11.53-.4,19.71-4.92,25.14-11.5l.05-.06,0-.06.05-.05,0-.06.05-.06s0,0,.05-.05l0-.06.05-.06,0,0,0-.06,0-.06.05-.05,0-.06.05-.06.05-.05,0-.06.05-.06,0-.06a.12.12,0,0,0,.05-.05l0-.06.05-.06,0-.05.05-.06.05-.06,0-.05,0-.06,0-.06.05-.05,0-.06.05-.06.05,0,0-.06.05-.06,0-.06.05-.05,0-.06.05-.06,0-.05.05-.06.05-.06,0-.05,0-.06,0-.06.05-.05,0-.06.05-.06.05-.06,0-.05.05-.06,0-.06.05-.05,0-.06.05-.06,0,0,.05-.06.05-.06,0-.06,0-.05.05-.06.05-.05,0-.06.05-.06,0-.06.05,0,.05-.06,0-.06.05-.05,0-.06.05-.06,0-.05.05-.06.05-.06,0-.06,0-.05.05-.06.05-.06,0,0,.05-.06,0-.06s0,0,.05-.05l.05-.06,0-.06.05-.05,0-.06.05-.06,0,0,.05-.06.05-.06,0-.06,0-.05.05-.06.05-.06,0-.05.05-.06,0-.06.05-.05.05-.06,0-.06,0-.06.05-.05c6.18-7.46,8.82-17.59,8.79-27.4l-.33-86.83c0-11.79-4.07-23.93-13.58-30l.59.25s0,0,0-.07h0a.64.64,0,0,0,0-.07l0,0a.64.64,0,0,1,0-.07h0s0-.05,0-.07h0a.64.64,0,0,0,0-.07l0,0a.64.64,0,0,1,0-.07h0a.2.2,0,0,0,0-.07h0s0,0,0-.07l0,0s0-.05,0-.08l0,0a.64.64,0,0,1,0-.07h0a.64.64,0,0,0,0-.07h0a.64.64,0,0,0,0-.07l0,0a.64.64,0,0,1,0-.07h0s0,0,0-.07h0a.15.15,0,0,0,0-.07l0,0s0-.05,0-.07h0s0-.05,0-.07h0a.64.64,0,0,0,0-.07l0,0a.64.64,0,0,1,0-.07h0a.64.64,0,0,1,0-.07h0a.64.64,0,0,0,0-.07l0,0a.64.64,0,0,1,0-.07h0a.2.2,0,0,0,0-.07h0s0,0,0-.07h0s0,0,0-.07l0,0a.64.64,0,0,1,0-.07h0s0-.05,0-.07h0a.64.64,0,0,0,0-.07l0,0a.64.64,0,0,1,0-.07h0s0,0,0-.07h0a.15.15,0,0,0,0-.07l0,0s0-.05,0-.07h0s0-.05,0-.07h0a.64.64,0,0,0,0-.07l0,0a.64.64,0,0,1,0-.07h0a.64.64,0,0,1,0-.07h0a.64.64,0,0,0,0-.07h0a.64.64,0,0,0,0-.07l0,0a.2.2,0,0,0,0-.07h0s0-.05,0-.07h0s0,0,0-.07l0,0a.64.64,0,0,1,0-.07h0s0-.05,0-.07h0a.64.64,0,0,0,0-.07l0,0a.64.64,0,0,1,0-.07h0s0,0,0-.07h0a.15.15,0,0,0,0-.07l0,0s0-.05,0-.07h0s0-.05,0-.07h0a.64.64,0,0,0,0-.07l0,0s0,0,0-.08l0,0a.64.64,0,0,1,0-.07h0a.64.64,0,0,0,0-.07h0a.64.64,0,0,0,0-.07l0,0a.2.2,0,0,0,0-.07h0s0-.05,0-.07h0s0,0,0-.07l0,0a.64.64,0,0,1,0-.07h0s0-.05,0-.07h0a.64.64,0,0,0,0-.07l0,0a.64.64,0,0,1,0-.07h0a.64.64,0,0,1,0-.07h0a.15.15,0,0,0,0-.07l0,0s0-.05,0-.07h0s0-.05,0-.07h0a.64.64,0,0,0,0-.07h0a.64.64,0,0,0,0-.07l0,0a.64.64,0,0,1,0-.07h0s0,0,0-.07h0a.64.64,0,0,0,0-.07l0,0a.2.2,0,0,0,0-.07h0s0-.05,0-.07h0s0,0,0-.07l0,0a.64.64,0,0,1,0-.07h0s0,0,0-.07h0a.64.64,0,0,0,0-.07l0,0a.64.64,0,0,1,0-.07h0a.64.64,0,0,1,0-.07h0a.15.15,0,0,0,0-.07h0s0,0,0-.07l0,0s0-.05,0-.07h0s0-.05,0-.07h0a.64.64,0,0,0,0-.07l0,0a.64.64,0,0,1,0-.07h0s0,0,0-.07h0a.64.64,0,0,0,0-.07l0,0a.2.2,0,0,0,0-.07h0s0-.05,0-.07h0s0,0,0-.07l0,0a.64.64,0,0,1,0-.07h0a.64.64,0,0,1,0-.07h0a.64.64,0,0,0,0-.07l0,0s0-.05,0-.08l0,0a.64.64,0,0,1,0-.07h0a.15.15,0,0,0,0-.07h0s0,0,0-.07l0,0s0,0,0-.07h0s0,0,0-.07h0a.64.64,0,0,0,0-.07l0,0a.64.64,0,0,1,0-.07h0s0-.05,0-.07h0c1.77-6-3.42-8.58-5.38-10.67-.55-8.62,3.91-55.41,6.13-68.73a13.66,13.66,0,0,1,1.52-4.29c5.87-4.87,15-8.43,24.47-11.31-2.35,1.05-15.2,6.88-19.27,11.45l0,0,0,0,0,0,0,0,0,0,0,0s0,0,0,0l0,0s0,0,0,0l0,0,0,0,0,0,0,0,0,0,0,0,0,0,0,0,0,0s0,0,0,0l0,0,0,0,0,0a0,0,0,0,0,0,0l0,0,0,0,0,0,0,0,0,0,0,0,0,0,0,0,0,0,0,0,0,0v0s0,0,0,0l0,0,0,0,0,0,0,0s0,0,0,0l0,0,0,0,0,0,0,0,0,0a0,0,0,0,1,0,0l0,0s0,0,0,0l0,0s0,0,0,0l0,0,0,0,0,0a0,0,0,0,0,0,0l0,0,0,0,0,0,0,0,0,0,0,0,0,0,0,0,0,0,0,0,0,0v0s0,0,0,0l0,0,0,0,0,0,0,0s0,0,0,0l0,0,0,0,0,0,0,0,0,0a0,0,0,0,1,0,0l0,0,0,0,0,0s0,0,0,0l0,0,0,0,0,0a0,0,0,0,0,0,0l0,0,0,0,0,0,0,0,0,0,0,0,0,0s0,0,0,0l0,0,0,0,0,0s0,0,0,0l0,0s0,0,0,0l0,0s0,0,0,0l0,0,0,0,0,0,0,0,0,0,0,0,0,0a0,0,0,0,1,0,0l0,0,0,0,0,0s0,0,0,0l0,0,0,0,0,0a0,0,0,0,0,0,0l0,0,0,0,0,0,0,0,0,0s0,0,0,0l0,0s0,0,0,0l0,0s0,0,0,0l0,0a0,0,0,0,1,0,0l0,0a0,0,0,0,0,0,0l0,0s0,0,0,0l0,0,0,0,0,0,0,0,0,0,0,0,0,0a0,0,0,0,1,0,0l0,0,0,0,0,0s0,0,0,0l0,0,0,0,0,0s0,0,0,0l0,0,0,0,0,0,0,0,0,0s0,0,0,0l0,0s0,0,0,0l0,0s0,0,0,0l0,0a0,0,0,0,1,0,0s0,0,0,0l0,0,0,0s0,0,0,0l0,0,0,0,0,0,0,0,0,0,0,0,0,0,0,0,0,0,0,0,0,0s0,0,0,0,0,0,0,0,0,0,0,0l0,0,0,0,0,0,0,0,0,0,0,0,0,0s0,0,0,0l0,0,0,0,0,0s0,0,0,0l0,0a0,0,0,0,1,0,0l0,0,0,0,0,0,0,0,0,0,0,0,0,0c-4,4.45-5.91,35.16-5.11,40.35,2.31,14.82,19.84,34.5,25.37,39.83l20-3.52S184.1,145.23,184.11,145.21Zm-68.4,137.21c-9,.52-12-7-12-13.71q-.25-39.4-.52-78.81a20.76,20.76,0,0,1,1.75-8.67,13.38,13.38,0,0,1,5.22-1.88c9.1-1.27,12.06,6.35,12.1,13.17l.42,80.27a20.55,20.55,0,0,1-1.51,8.1A12.24,12.24,0,0,1,115.71,282.42Z"/><path class="cls-1" d="M369.13,349.81a18.24,18.24,0,0,0,4.82-3.12l.05-.06.05-.06.05-.06,0-.05.05-.06.05-.06.05,0,0-.06.05-.06.05-.05.05-.06.05-.06,0-.05.05-.06,0-.06.05-.06,0,0,.05-.06.05-.06.05-.05.05-.06,0-.06.05-.05,0-.06.05-.06.05-.05,0-.06.05-.06.05,0,.05-.06,0-.06.05-.06.05-.05.05-.06.05-.06,0-.05.05-.06.05-.06,0,0,0-.06.05-.06.05-.06.05-.05.05-.06,0-.06.05-.05.05-.06,0-.06a.12.12,0,0,0,0-.05l.05-.06.05-.06.05,0,.05-.06,0-.06,0-.05.05-.06.05-.06,0-.06s0,0,.05-.05l.05-.06.05-.06.05,0,0-.06.05-.06.05-.05.05-.06.05-.06,0-.05.05-.06.05-.06.05-.06,0-.05.05-.06.05-.06.05-.05.05-.06,0-.06.05-.05,0-.06.05-.06,0-.05L378,342,378,342s0,0,.05,0l.05-.06,0-.06.05-.06,0-.05.05-.06,0-.06s0,0,.05-.05l.05-.06.05-.06.05-.05,0-.06,0-.06.05-.05.05-.06,0-.06.05-.05c1.07-1.14,1.61-2.61,1.61-5v-5.53c0-4.11-2.5-8.69-9.05-9.22-3.31-.26-5.59.72-7,2.31l-.05.06-.05.06-.05.05,0,.06-.05.06a.12.12,0,0,0-.05.05l-.05.06L364,324l0,0-.05.06-.05.06,0,.05,0,.06-.05.06-.05.06-.05.05-.05.06,0,.06-.05.05,0,.06-.05.06-.05,0,0,.06-.05.06-.05.05-.05.06-.05.06,0,.05-.05.06-.05.06-.05.06,0,0-.05.06-.05.06-.05.05,0,.06-.05.06-.05.05-.05.06-.05.06,0,.05-.05.06-.05.06,0,0,0,.06-.05.06-.05.06-.05.05-.05.06,0,.06-.05.05,0,.06-.05.06,0,0-.05.06-.05.06-.05.06-.05.05,0,.06,0,.06-.05.05-.05.06-.05.06,0,.05-.05.06-.05.06a.12.12,0,0,1-.05.05l0,.06-.05.06-.05.06-.05.05-.05.06,0,.06s0,0-.05.05l-.05.06,0,.06,0,0-.05.06-.05.06s0,0-.05.05l-.05.06,0,.06-.05.05,0,.06-.05.06,0,.06s0,0-.05.05l-.05.06-.05.06-.05.05,0,.06,0,.06-.05.05-.05.06,0,.06-.05.05-.05.06-.05.06-.05.06,0,0a7.39,7.39,0,0,0-.77,1c0-.35,0-.71,0-1.06,0-4.31-2.48-9.06-9.05-9.52-3.31-.23-5.59.81-7.05,2.48a.12.12,0,0,0-.05.05l-.05.06,0,.06-.05.05-.05.06-.05.06a.12.12,0,0,1-.05.05l0,.06-.05.06-.05.06-.05.05-.05.06,0,.06-.05,0-.05.06,0,.06,0,.05-.05.06-.05.06s0,0-.05.05l-.05.06,0,.06-.05.06,0,.05-.05.06,0,.06-.05.05-.05.06-.05.06-.05.05,0,.06,0,.06L341,324,341,324l0,.06-.05,0-.05.06-.05.06-.05.06,0,.05-.05.06-.05.06-.05.05,0,.06-.05.06-.05.05-.05.06,0,.06,0,.05-.05.06-.05.06-.05.06-.05.05,0,.06-.05.06,0,.05-.05.06,0,.06-.05,0-.05.06-.05.06a.12.12,0,0,1-.05.05l0,.06,0,.06-.05.06-.05.05,0,.06-.05.06s0,0-.05,0l-.05.06-.05.06,0,.05-.05.06-.05.06s0,0-.05.05l0,.06-.05.06-.05.05-.05.06,0,.06-.05.06a.12.12,0,0,0-.05,0l-.05.06-.05.06,0,.05-.05.06-.05.06,0,.05-.05.06,0,.06-.05.06-.05,0-.05.06-.05.06,0,.05,0,.06-.05.06-.05.05,0,.06-.05.06a7.49,7.49,0,0,0-.9,1.25c0-.34,0-.69,0-1,0-4.47-2.46-9.37-9.05-9.77-3.31-.2-5.6.9-7.06,2.63l-.05.06-.05.05-.05.06,0,.06-.05.05,0,.06-.05.06,0,.05-.05.06-.05.06-.05.05-.05.06,0,.06,0,.05-.05.06-.05.06,0,.06-.05,0-.05.06-.05.06-.05.05,0,.06-.05.06-.05.05-.05.06,0,.06-.05.06-.05.05-.05.06,0,.06,0,.05-.05.06-.05.06-.05.05-.05.06,0,.06-.05.05,0,.06-.05.06,0,0-.05.06-.05.06-.05.06-.05.05,0,.06,0,.06-.05.05-.05.06,0,.06-.05.05-.05.06-.05.06-.05.05,0,.06-.05.06-.05.05-.05.06,0,.06-.05.06-.05.05-.05.06,0,.06-.05,0-.05.06-.05.06-.05.05,0,.06-.05.06-.05.05,0,.06-.05.06,0,.06-.05,0-.05.06-.05.06-.05.05,0,.06,0,.06-.05.05-.05.06,0,.06-.05.05-.05.06-.05.06-.05.06,0,0-.05.06-.05.06-.05.05,0,.06-.05.06-.05.05-.05.06,0,.06-.05,0-.05.06-.05.06-.05.06,0,.05-.05.06a8.42,8.42,0,0,0-1.56,2.79l.08-11-5.73-.29q-3.15,3.54-6.31,7.16h0l0,.05h0l-.05.06h0l-.05.06h0l-.05.05h0l0,.06h0l-.05.06h0l-.05.05h0l-.05.06h0l0,.06h0l-.05.05h0l-.05.05h0l-.05.06h0l-.05.06h0l0,.05h0l-.05.06h0l-.05.06h0l0,0h0l0,.06h0l-.05.06h0l-.05.05h0l-.05.06h0l-.05.06h0l0,.05h0l-.05.05h0l0,.06h0l-.05.06h0l-.05.05h0l0,.06h0l-.05.06h0l-.05.05h0l-.05.06h0l-.05.06h0l-.05.05h0l-.05.06h0l-.05.06h0l-.05.05h0l0,.06h0l-.05.06h0l-.05,0h0l-.05,0h0l0,.06h0l-.05.06h0l-.05.05h0l-.05.06h0l-.05.06h0l0,.05h0l-.05.06h0l-.05.06h0l0,.05h0l0,.06h0l-.05.06h0l-.05.05h0l-.05.05h0l-.05.06h0l0,.06h0l-.05.05h0l0,.06h0l-.05.06h0l0,.05h0l-.05.06h0l-.05.06h0l-.05,0h0l-.05.06h0l0,.06h0l0,.05h0l-.05.05h0l-.05.06h0l-.05.05h0l0,.05h0l-.05.06h0l-.05.06h0l-.05,0h0l0,.06h0l-.05.06h0l-.05.05h0l-.05.06h0l-.05.06h0l0,.05h0l-.05.06h0l-.05.06h0l0,.05h0l0,.05h0l-.05.06h0l-.05.06h0l-.05,0h0l-.05.06h0l0,.06h0l-.05.05h0l-.05.06h0l-.05.06h0l0,.05h0l-.05.06h0l-.05.06h0l-.05,0h0l-.05,0h0l0,.06h0l0,.06h0l-.05.05h0l-.05.06h0l0,.06h0l-.05.05,3.42,3.77,2.64-2.87q-.11,15.76-.22,31.52h5.92v-.06h.05v-.06h0v-.06h.05v-.06h0v-.06h.05V363h.05V363h0v-.06h.05v0h.05v-.06h.05v-.06h.05v-.05h0v-.06h.05v-.06h.05v-.05h.05v-.06h0v-.06H310v-.06h.05v-.05h.05v-.06h0v-.06h.05v-.05h.05v-.06h.05V362h.05v-.05h0v-.06h.05v-.06h.05v-.05h0v-.06h0v-.06h.05v-.06h.05v0h.05v-.06h.05v-.06h0v-.05h.05v-.06h0v-.06H311v-.05h0v-.06h.05v-.06h.05V361h.05V361h.05v-.06h0v-.06h0v-.05h.05v-.06h.05v-.06h.05v-.05h0v-.06h.05v-.06h.05v-.05h.05v-.06h0v-.06h.05v0h.05v-.06h.05v-.06h.05v-.05h0v-.06H312V360h.05v-.06h0v-.05h0v-.06h.05v-.06h.05v0h.05v-.06h.05v-.06h0v-.05h.05v-.06h0v-.06h.05v-.05h0v-.06h.05v-.06h.05v-.06h.05v-.05h.05v-.06h0V359h0v0h.05v-.06H313v-.06h0v-.05h.05v-.06h.05v-.06h.05v-.05h.05v-.06h0v-.06h.05v0h.05v-.06h.05v-.06h.05v-.06h0v-.05h.05v-.06h.05v-.06h0v-.05h0V358h.05V358h.05v-.05h.05v-.06h.05v-.06h0c.92,3.47,3.56,6.4,8.68,6.4a8.77,8.77,0,0,0,7.07-3l.05-.06s0,0,.05,0l0-.06.05-.06a.12.12,0,0,1,.05-.05l0-.06,0-.06.05-.06s0,0,.05-.05l.05-.06.05-.06,0-.05.05-.06,0-.06.05-.05.05-.06,0-.06.05-.05.05-.06.05-.06.05-.06,0-.05.05-.06.05-.06.05,0,0-.06.05-.06s0,0,.05-.05l.05-.06,0-.06.05-.05.05-.06.05-.06.05-.05,0-.06.05-.06.05-.06,0-.05,0-.06.05-.06.05-.05.05-.06.05-.06,0-.05.05-.06,0-.06.05-.06,0,0,.05-.06.05-.06.05-.05.05-.06,0-.06,0-.05.05-.06.05-.06.05,0,0-.06.05-.06a.12.12,0,0,1,.05-.05l.05-.06,0-.06.05-.06.05-.05.05-.06.05-.06,0-.05.05-.06.05-.06,0,0,0-.06.05-.06.05-.05.05-.06.05-.06,0-.06.05-.05,0-.06.05-.06,0,0,.05-.06.05-.06.05-.05.05-.06,0-.06,0-.05.05-.06.05-.06,0-.05.05-.06.05-.06.05-.06.05-.05,0-.06.05-.06.05-.05.05-.06.05-.06,0-.05.05-.06a8.25,8.25,0,0,0,.92-1.35V355c0,4.46,2.47,9.18,9.07,9.17a8.9,8.9,0,0,0,7.07-2.87l.05-.06.05-.06,0-.05.05-.06.05-.06,0,0,.05-.06,0-.06.05-.05.05-.06.05-.06.05-.05,0-.06,0-.06.05-.06.05-.05,0-.06.05-.06.05,0,.05-.06.05-.06,0-.05.05-.06.05-.06s0,0,.05-.05l0-.06.05-.06.05-.06.05,0,0-.06.05-.06.05-.05.05-.06.05-.06,0-.05.05-.06.05-.06,0-.05,0-.06.05-.06.05-.06.05-.05.05-.06,0-.06.05-.05,0-.06.05-.06.05-.05,0-.06.05-.06.05,0,.05-.06.05-.06,0-.06.05-.05.05-.06.05-.06,0-.05.05-.06.05-.06.05-.05,0-.06.05-.06.05-.05.05-.06.05-.06,0-.05.05-.06.05-.06,0-.06a.12.12,0,0,0,0-.05l.05-.06.05-.06.05,0,.05-.06,0-.06.05-.05,0-.06.05-.06,0-.05.05-.06.05-.06.05-.06.05-.05,0-.06,0-.06.05-.05.05-.06.05-.06,0-.05.05-.06.05-.06a.12.12,0,0,1,.05-.05l0-.06.05-.06.05,0,.05-.06.05-.06,0-.06.05-.05a8.67,8.67,0,0,0,.8-1.11l0,8.91,18.24,0v-.06h.05v-.06h.05v-.05h.05v-.06h.05v-.06h0v-.05h.05v-.06h.05V363h.05v-.05h0v-.06H376v-.06h.05v-.06h.05v-.05h0v-.06h.05v-.06h.05v0h.05v-.06h.05v-.06h0v-.05h.05v-.06h.05v-.06h0v-.05h0v-.06h.05v-.06h.05V362h.05v0h.05v-.06h0v-.06h.05v-.05h0v-.06H377v-.06h0v-.05h.05v-.06h.05v-.06h.05v-.05h.05v-.06h0v-.06h0v-.06h.05v0h.05v-.06h.05v-.06h0v-.05h.05V361h.05v-.06h.05v-.05h0v-.06h.05v-.06h.05v0h.05v-.06h.05v-.06h0v-.05H378v-.06h.05v-.06h0v-.06h0v-.05h.05v-.06h.05v-.06h.05v-.05h.05v-.06h0V360h.05v0h0v-.06h.05v-.06h0v-.05h.05v-.06h.05v-.06h.05v-.06h.05v-.05h0v-.06h0v-.06h.05v0H379v-.06h0v-.06h.05v-.05h.05v-.06h.05v-.06h.05v-.05h0V359h.05V359h.05v-.06h.05v-.05h.05v-.06h0v-.06h.05v-.05h.05v-.06h0v-.06h0v-.05h.05v-.06h.05v-.06h.05v-.05h.05v-.06h0v-.06H380v0h0v-.06h.05V358h0V358h.05v-.05h.05v-.06h.05v-.06h.05v-.05h0v-.06h0v-5.63l-12.31-.17c0-.52,0-1,0-1.57Zm-44.62-.42a3.09,3.09,0,0,1,1.27,2.13A3.33,3.33,0,0,1,324.51,349.39Zm0-18.51a3.84,3.84,0,0,1,1.49,3.3c0,.8,0,1.6,0,2.4-1.21-.74-1.5-2.25-1.49-3.7Zm22,19.08a2.81,2.81,0,0,1,1.13,1.74A3.13,3.13,0,0,1,346.49,350Zm1.4-14.72v2.07c-1.19-.73-1.48-2.18-1.47-3.58,0-.56,0-1.11,0-1.67A3.69,3.69,0,0,1,347.89,335.24Zm8.15,5.93h0l0-.06.05-.06.05-.05.05-.06.05-.06,0-.05.05-.06.05-.06,0-.06s0,0,0-.05l.05-.06.05-.06.05-.05.05-.06,0-.06.05-.05,0-.06.05-.06.05-.05,0-.06.05-.06.05,0,.05-.06.05-.06,0-.06.05-.05.05-.05c0,.37,0,.74,0,1.11l5.8.27V341h.05v-.06h.05v-.06h.05v-.06h.05v-.06h0v-.06h.05v-.06h.05v-.06h0v-.06h0v-.05h.05v-.06h.05v-.06h.05v-.06h.05v-.06h0v-.06h.05v-.06h0V340H364V340h0v-.06h.05v-.06h.05v-.06h.05v-.06h.05v-.05h0v-.06h0v-.06h.05v-.06h.05v-.06h.05v-.06h0v-.06h.05v-.06h.05v-.06h0v-.06h0v-.06h.05v-.06h.05V339h.05V339h.05v-.06h0v-.06H365v0h.05v-.06h0v-.06h0v-.06h.05v-.06h.05v-.06h.05v-.06h.05v-.06h0v-.06h.05v-.06h0v-.06h.05v-.06h0v-.06h.05v-.05h.05V338h.05v-.06h.05v-.06h0v-.06h0v-.06h.05v-.06H366v-.06h0v-.06h.05v-.06h.05v-.06h.05v-.06h.05v-.06h0v-.05h.05v-.06h.05v-.06h.05v-.06h.05v-.06h0V337h.05V337h.05v-.06h0v-.06h0v-.06h.05v-.06h.05v-.06h.05v-.06h.05v-.06h0v-.06H367v-.06h0v-.05h.05v-.06h0v-.06h.05v-.06h.05v-.06h.05v-.06h.05v-.06h0V336h0v-.06h.05v-.06h.05v-.06h0v-.06h.05v-.06h.05v0h.05v-.06h.05v-.06h0v-.06h.05v-.06h.05v-.06H368v-.06h0v-.06h.05v-1.91a3.54,3.54,0,0,1,1.55,3.1v2.71l-2.53,1.3a9.84,9.84,0,0,0-3.58,2.68l0,.06-.05.05-.05.06,0,.06-.05.05,0,.06-.05.06-.05.06-.05,0-.05.06,0,.06,0,.05-.05.06-.05.06,0,.05-.05.06-.05.06-.05.05-.05.06,0,.06-.05.05-.05.06-.05.06,0,.06-.05.05-.05.06-.05.06,0,.05-.05.06-.05.06-.05,0L362,345l0,.06-.05.05-.05.06,0,.06,0,.06s0,0-.05.05l-.05.06-.05.06-.05.05,0,.06-.05.06,0,.05-.05.06-.05.06,0,.05-.05.06-.05.06-.05.06L361,346l0,.06-.05.06-.05,0-.05.06,0,.06-.05.05-.05.06-.05.06,0,.05-.05.06-.05.06-.05.06-.05,0,0,.06-.05.06s0,0-.05.05l0,.06,0,.06-.05.05-.05.06-.05.06-.05.05,0,.06-.05.06,0,0-.05.06,0,.06-.05.06-.05.05-.05.06-.05.06,0,.05,0,.06-.05.06-.05,0-.05.06,0,.06s0,0-.05.05l-.05.06-.05.06,0,.06a.12.12,0,0,0-.05.05l-.05.06-.05.06-.05.05,0,.06-.05.06-.05,0,0,.06h0v-1.37C358.66,344.43,357.69,342,356,341.17Zm-21.94-.67,0-.05.05-.06,0-.06.05-.05,0-.06.05-.06.05-.05.05-.06.05-.06,0-.05s0,0,0-.06l.05-.06s0,0,.05-.06,0,0,0-.05l.05-.06.05-.06.05,0,.05-.06,0-.06.05-.05.05-.06.05-.06.05-.05,0-.06.05-.06.05-.06,0,0,.17-.25v.83a12.81,12.81,0,0,0,.33,3A4.12,4.12,0,0,0,334.1,340.5Zm2.3,3.53a4.14,4.14,0,0,0,1.8,2l0,.05-.05,0-.05.06-.05.06,0,.06-.05.05-.05.06-.05.06,0,.05,0,.06-.05.06s0,0-.05.05l-.05.06-.05.06s0,0,0,.05l-.05.06,0,.06s0,0-.05.06l0,.05-.05.06-.05.06-.05.05-.05.06,0,.06,0,0-.05.06-.05.06-.17.25V347A12.23,12.23,0,0,0,336.4,344Zm-20.07,1.43,0,0s0,0-.05.06l-.05.06,0,0-.05.06-.05.06s0,0-.05.06l-.05.05,0,.06-.05.06-.05.05,0,.06,0,.06s0,0-.05.05l-.05.06-.05.06-.05.06s0,0,0,.05l-.05.06s0,0,0,.06l-.05.05-.05.06s0,0,0,.06l-.05.05-.05.06-.05.06-.05,0,0,.06a6.21,6.21,0,0,0-.83,1.65c0-2,0-4,0-6.05A4.66,4.66,0,0,0,316.33,345.46Z"/><path class="cls-2" d="M93,109.59c-10,.39-28.27,6.69-37.31,14.94,2,8.77,29.42,40.64,33.64,39.2,4.36-4.67,7.21-9,15.58-12.15-2.66-6.59-8.09-2.69-9.07-4.18C93.18,138,87.75,126.12,93,109.59Z"/><path class="cls-2" d="M165,144.47c-5.52-5.34-25.84-27.79-28.15-42.62-.81-5.18,3-35,7.83-41.41,6.33-8.39,27-10.1,27-10.1-2.52,9.53-2.86,60.09,9.08,77.85,3.67,5.44,14.12,8.5,4.56,15.54Z"/><path class="cls-2" d="M208.57,21.71c-.77-4.71-15.24-7.39-20.54-9.3S182.2,3,180.51,1.34s-5.64-.55-6.71,1c-1,1.27-9.31,2-15.43,3.16-4.28.81-13.61,3.24-14.85,4.83a5.47,5.47,0,0,0,1.91,3.9c-2.55-1.33-9.81-4.06-23.57-1.63-17.72,3.13-33.64,14-39.59,22.57.22-4.51,3.25-9.44,6.75-13-14.09,2.49-45.59,21.5-69.55,51.15S8.59,179.51,8.59,179.51s27-8.72,29.87-9.55,2.31-5.26-1.3-7.72,14.16-32.16,20-38.46,47.66-18.94,46.28-14.8c0,0,4.3,30.37,12.12,36.36,7-1.09,16.91,2.2,22.63,4.64,4.09-4.1,5.85-6.91-2.28-14.74-.55-8.63.88-56.29,6.13-68.73,7.31-17.3,28.31-20.93,47.91-25.95S209.34,26.41,208.57,21.71Z"/><path class="cls-1" d="M155.26,20.3C149.67,10,153,7.72,160.65,10.7,155.1,11.14,154,13.2,155.26,20.3Z"/><path class="cls-1" d="M174.92,22a5.8,5.8,0,0,1-3.83-2.37,5.16,5.16,0,0,1,4.4-1.32c1.9.35,3.74,2,3.73,3.05C178.54,22.2,176.82,22.37,174.92,22Z"/><path class="cls-2" d="M67.76,189.18c-.09-15.12-7.23-26.69-24.26-21.32Q24,174,4.92,181.76V311.94q10.89-1.12,21.81-2.12-.09-25.08-.19-50.17Q35.26,258,44,256.56c17.16-2.72,24.11-16.29,24-31.5Q67.89,207.12,67.76,189.18ZM38.53,235.11q-6,1.27-12.07,2.66-.09-21.12-.17-42.24,6-1.87,12-3.6c6.55-1.88,7.65,1,7.68,5.87q.07,13.86.16,27.73C46.18,230.42,45.12,233.74,38.53,235.11Z"/><path class="cls-2" d="M149.4,181.43c-.05-18.26-9.7-37.41-34.5-33.52C90.15,152.18,81,173.29,81.09,190.49q.28,41.19.58,82.38c.13,17.35,9.61,35.09,34.19,34.23s33.93-20.41,33.87-38.83ZM115.71,281.91c-9,.52-12-7-12-13.71q-.25-39.4-.52-78.8c0-6.69,2.8-15,11.89-16.3s12.07,6.35,12.1,13.17q.21,40.14.43,80.27C127.61,273.38,124.75,281.41,115.71,281.91Z"/><path class="cls-2" d="M166.69,302.52l-.36-156.84q11.21-.6,22.41-.69l0,132.07q13.71,0,27.43.21l-.06,25.21Q191.44,302.16,166.69,302.52Z"/><path class="cls-2" d="M287.17,182.65C286.34,170.33,284,150,261,146.49c-23-3.08-25.7,17.29-26.65,29.86q-5.07,62.86-10.05,126.25,10.69.19,21.37.49,1.53-18.45,3.07-36.83,11.61.58,23.2,1.41,1.33,18.29,2.66,36.48,10.67.47,21.31,1.07Q291.55,244.5,287.17,182.65Zm-36.49,59.69q2.31-28.82,4.65-57.45c.78-9.76,1.72-13.51,5.54-13s4.72,4.44,5.39,14.29q2,28.94,4,57.7Q260.49,243,250.68,242.34Z"/><path class="cls-2" d="M370.72,273.94c-1.93-12.49-4-22.61-10.93-25.79,11.36-.82,13.82-11.23,13.84-20.21l0-23.24c0-13.58-6.71-28.35-23.63-34.19q-19.41-6.48-39.2-11.31-.52,73.43-1,146.85,11,.69,21.95,1.53.17-26.74.34-53.49l5.55.88c7.86,1.32,9.79,7.67,11.17,16.71q2.94,19.08,5.91,37.79,10.93,1,21.82,2.07Q373.61,293,370.72,273.94Zm-18.63-52.61c0,10.87-3.79,13.46-11.64,11.87-2.74-.55-5.47-1.09-8.22-1.62q.15-21.81.28-43.62,6.06,1.56,12.1,3.27c6.55,1.87,7.59,5.27,7.57,10Z"/><path class="cls-2" d="M240.92,341.4q0-8.47.07-16.94c0-4.92-2.48-10.2-9.11-10.32s-9.17,5.12-9.18,10.09l-.06,23.47c0,5,2.49,10.23,9.09,10.23s9.15-5.23,9.17-10.15c0-1,0-2,0-3.08l-5.83,0V347c0,1.86-.79,4-3.31,4s-3.2-2.17-3.2-4l0-5.66C232.7,341.34,236.81,341.36,240.92,341.4Zm-12.29-16.35c0-1.87.79-4,3.23-4s3.3,2.2,3.29,4.06l0,9.48-6.52-.06Z"/><path class="cls-2" d="M250.9,339.75c-4.22-2.81-6.3-4.05-6.28-10l0-5.27c0-4.92,2.57-10.08,9.14-9.91s9.07,5.42,9,10.28l0,6.41-5.83-.1,0-5.69c0-1.84-.76-4-3.24-4s-3.17,2.06-3.18,3.91c0,.87,0,1.73,0,2.6,0,2.65.28,3.35,4.45,6.06l2.9,1.88c3,1.94,4.84,4,4.82,8.26l0,3.73c0,4.86-2.58,10-9.18,10s-9.1-5.2-9.07-10.13c0-1,0-2,0-3.06l5.83,0c0,.77,0,1.54,0,2.31,0,1.84.75,4,3.28,4s3.21-2.11,3.22-3.95c0-.48,0-1,0-1.44,0-1.84-.37-2.3-4.3-4.87Z"/><path class="cls-2" d="M272.86,316c0,3.74-.05,7.47-.07,11.2,3.72.09,7.45.19,11.17.3,0,2.15,0,4.31,0,6.47-3.72-.09-7.45-.16-11.17-.24q0,6.74-.08,13.47c0,1.82.75,3.93,3.18,3.94s3.31-2.07,3.32-3.88c0-.75,0-1.51,0-2.26l5.82.07c0,1,0,2,0,3,0,4.77-2.59,9.83-9.19,9.83s-9.09-5.13-9.06-10q.09-16,.19-32.08Z"/><path class="cls-2" d="M287.22,357.08l0-5.89,5.53,0c0,1.95,0,3.91,0,5.86Z"/><path class="cls-2" d="M308.18,357.1q.12-15.77.22-31.52l-2.64,2.86-3.42-3.76q3.17-3.6,6.31-7.15l5.73.28q-.13,19.65-.28,39.3Z"/><path class="cls-2" d="M336.82,333.15l0-5.63c0-4.47-2.46-9.38-9-9.78s-9.15,4.35-9.18,9l0,5.79c0,3.74,1.17,6.37,3.21,6.95-2.05.44-3.28,3.17-3.3,6.8,0,.74,0,1.47,0,2.21,0,4.61,2.46,9.49,9.06,9.48s9.15-4.76,9.18-9.23c0-.72,0-1.44,0-2.16,0-3.53-1.17-6.25-3.2-6.78C335.57,339.28,336.79,336.79,336.82,333.15Zm-6,14.78c0,1.7-.8,3.66-3.23,3.64s-3.18-2-3.17-3.74v-1.18c0-1.93.47-4.07,3.23-4s3.19,2.2,3.18,4.12C330.81,347.15,330.81,347.54,330.81,347.93Zm.1-15.32c0,2-.47,4-3.18,3.94s-3.23-2.19-3.22-4.18l0-4.72c0-1.72.8-3.67,3.22-3.55s3.19,2.13,3.18,3.83Z"/><path class="cls-2" d="M358.7,334.07c0-1.81,0-3.62,0-5.43,0-4.3-2.48-9.05-9.05-9.51s-9.11,4.1-9.14,8.56l0,5.61c0,3.62,1.18,6.17,3.21,6.75-2,.4-3.27,3-3.29,6.56,0,.71,0,1.43,0,2.15,0,4.46,2.47,9.18,9.07,9.17s9.14-4.58,9.16-8.89V347c0-3.39-1.19-6-3.22-6.55C357.46,340,358.68,337.57,358.7,334.07Zm-6,14.21c0,1.64-.8,3.53-3.22,3.51s-3.19-2-3.18-3.62V347c0-1.87.46-3.93,3.22-3.86s3.19,2.14,3.18,4Zm.06-14.78c0,1.9-.45,3.88-3.16,3.79s-3.23-2.14-3.22-4.06c0-1.52,0-3,0-4.57s.79-3.54,3.21-3.39,3.18,2.08,3.18,3.72Z"/><path class="cls-2" d="M362.24,347c0-3.78,1.81-5.5,4.86-7l2.9-1.48c4.17-2.11,4.55-2.66,4.55-4.93,0-1.11,0-2.23,0-3.34a3.34,3.34,0,0,0-3.18-3.6c-2.46-.17-3.29,1.63-3.29,3.22s0,3.29,0,4.94l-5.8-.27c0-1.88,0-3.77,0-5.65,0-4.29,2.54-8.66,9.09-8.13s9.05,5.1,9.05,9.21v5.54c0,4.85-2.17,5.87-6.38,8.1l-1.6.84c-3.92,2.06-4.32,2.47-4.32,4.06,0,1,0,2,0,2.94l12.31.17v5.63l-18.24,0Q362.22,352.07,362.24,347Z"/></g></g></svg>