<svg xmlns="http://www.w3.org/2000/svg" viewBox="0 0 384.15 272.84"><defs><style>.cls-1{fill:#0679be;}.cls-2{fill:#22bcb9;}.cls-3{fill:#243b76;}</style></defs><g id="Layer_2" data-name="Layer 2"><g id="Layer_1-2" data-name="Layer 1"><path class="cls-1" d="M48.05,272.84c57.69-35.53,98.45-37.49,167.31-28.1C327.4,260,357.05,221.07,364,203c10.88-28.47-38.15-25.2-23,11.18,10.52,25.26,38.67,30.71,40.76,24.48-59-51.71-5.41-59-27.41-30.45-17.07,22.14-135.07,17.6-180.52,15.73-26.09-1.06-83.32-6.56-119.22,35.53C45.3,270.33,48.05,272.84,48.05,272.84Z"/><path class="cls-2" d="M52.11,259.12c57.69-35.54,98.45-33.87,167.31-24.48,112,15.27,140.53-12.49,147.44-30.59,10.88-28.47-37-36.38-21.83,0,10.53,25.26,37,33.23,39.12,27-59-51.71-2.17-53.77-26.62-20.79-16.64,22.46-134.21,5.41-179.66,3.55-26.09-1.07-83.32-10.19-119.23,31.91C49.35,256.6,52.11,259.12,52.11,259.12Z"/><path class="cls-2" d="M221.24,146.37c-12.69,0-55.59-24-74.06-31-2.76,6.62-11,9.38-18.2,9.38-6.34,0-11.86-2.21-11.86-5.79,0-5.24,7.31-7.86,14.89-9.24-.27-5-.55-11.72-.55-19.3,0-34.61,5.52-87,42.74-87,11.86,0,16.55,6.06,16.55,13.78,0,13.52-14.62,32.27-31.16,32.27-.69,0-1.38,0-1.38-1a5.24,5.24,0,0,1,.69-2.07c9.51-4.13,15.16-16.54,15.16-25.78,0-6.2-2.48-11-8.13-11C148.56,9.62,144,31.68,144,56.5c0,17.51,2.34,34.61,4.13,52.26,25.1.55,53.06,22.57,84.11,22.57,3.37,0,5.56-1.16,7.12-3.74C237.85,136.55,234.61,146.37,221.24,146.37Zm-89.37-32.93c-4.13.69-5.79,2.35-5.79,3.73,0,1,.83,1.79,2.35,1.79C129.67,119,131.32,117.17,131.87,113.44Z"/><path class="cls-2" d="M105.76,82.73c0,1.34-1.5,2.39-5.23,2.69-1.35-4.49-4.79-5.08-8.22-5.08a8.39,8.39,0,0,0-6.23,3.56c8.52,4,11.8,11.81,11.8,19.28,0,10.46-5.52,19.43-14,19.43s-12-6.58-12-14.8c0-6.87,1.49-14,6.13-20a19,19,0,0,0-10.61-3c-23.61,0-38.26,30.64-38.26,59.33,0,25.55,11.66,49.76,39,49.76a40.51,40.51,0,0,0,34.67-19.72c1.79-3,3.58-6.28,5.08-9.42l2.84.75c-1.35,3-3.14,6-4.94,9.11a63.35,63.35,0,0,1-55.44,32.73c-35.12,0-50.36-22.71-50.36-49,0-35.57,27.8-77.42,71.13-77.42a39.37,39.37,0,0,1,12,1.8c3-2.09,7-5.06,10.86-5.06C100.83,77.65,105.76,80.49,105.76,82.73ZM80.55,89.88c-3.89,5.83-5.38,13-5.38,19.42s2.69,9.87,5.68,9.87c3.29,0,5.68-3.14,5.68-12C86.53,101.24,84.88,94.36,80.55,89.88Z"/><path class="cls-2" d="M162.29,164.75l2.84.75c-1.34,3-3.28,6-4.93,9.11-9,16.89-20,25.26-28.39,25.26-7.17,0-12.4-6.28-12.4-18.53,0-5.68,1.19-12.55,3.58-20.77-4.33,5.23-13.15,9.11-19.72,9.11-4.64,0-8.22-1.94-8.22-6.72,0-3.44,1.19-8.07,4-14.8,1.94,4,10.16,5.08,18.38,5.08,5.53,0,11.06-.44,14.5-.74.45,0,1,1.19,1,2.24a36.74,36.74,0,0,0-3.13,13.6c0,9.71,5.68,15.69,12.55,15.69,4.93,0,10.46-3,14.79-9.86A80.29,80.29,0,0,0,162.29,164.75Z"/><path class="cls-2" d="M166.33,160.57a31.41,31.41,0,0,1-.3-3.74c0-6.43,5.38-10.46,11.66-10.46,9.56,0,22.56,9.86,22.56,29.44a23.56,23.56,0,0,1-.44,4.78c7.92-.75,15.69-5.38,21.52-15.84l2.83.75c-6.57,12.25-15.84,17.48-24.95,18.23-3.29,10.91-13.45,16.14-23.17,16.14-10.46,0-20.32-6.13-20.32-17.78A26.27,26.27,0,0,1,166.33,160.57Zm12.7-3.89c-3.13,3.44-3.43,5.38-4.18,9.41a30.64,30.64,0,0,0,21.67,12.55l-1.05.46c0-14.5-15.69-26.6-22.56-26.6-1.95,0-3.29,1-3.29,3.14a16.24,16.24,0,0,0,.15,2.69,39,39,0,0,1,7.17-3.14Zm-4.63,14.49L173.35,177c0,9.56,6.43,15.24,12.41,15.24,4,0,9-4.79,10.31-10.62A34.31,34.31,0,0,1,174.4,171.17Z"/><path class="cls-2" d="M264.22,174.61c-8.37,14.95-20.63,23.62-30.79,23.62-10.46,0-18.68-9-18.68-29.44,0-6.73,7.77-10.32,13.6-10.32a8.53,8.53,0,0,1,5.08,1.35,85.56,85.56,0,0,0-.75,10.31c0,11.81,3.44,20,9.72,20,4.78,0,11.06-4.64,18.83-16a83.36,83.36,0,0,0,5.08-9.42l2.84.75C267.8,168.49,266,171.48,264.22,174.61Z"/><path class="cls-2" d="M231.1,101.28c-4.7,4.76-7.53,5.65-11.26,5.65-3.45,0-5.65-3-7.17-7.16,4.14-5.38,6.48-11.45,6.48-16.27,0-4.55,1.16-9.76-3.39-9.76-7.45,0-14,7.83-14,15a29,29,0,0,0,3.58,13.79,17.69,17.69,0,0,1-11,3.73c-5.79,0-8.41-6.21-8.41-13.52,0-10.34,5.75-24.71,14.16-24.71a8,8,0,0,1,8,5.72c4-.42,4.69-.86,4.69-2.38,0-2.07-2.66-6.37-8.45-6.37-20.82,0-34.84,19.33-34.84,32.85,0,8.41,5.24,15.3,17.23,15.3a31.72,31.72,0,0,0,20.54-7.58c2.76,3.3,6.21,5.65,10.35,5.65,4.64,0,10.2-3.12,15.8-8.64ZM210.74,86.8c0-5.37,2.9-11.2,4.56-11.2,1.93,0,2.07,2.45,2.07,5.35,0,3.72-2.77,10-5.8,14.68A48,48,0,0,1,210.74,86.8Z"/><path class="cls-2" d="M318.83,179.15c-5.9,6.65-12.3,9.36-18.3,9.36-7.47,0-14.35-4.33-18.38-10.61,7.92-8.22,15.54-16,19.73-20a2.84,2.84,0,0,0,1-1.95c0-.89-.89-1.64-1.94-2.24l-20.62,21.22A26.35,26.35,0,0,1,278,164a85.71,85.71,0,0,1,.75-10.31,8.58,8.58,0,0,0-5.08-1.34c-5.83,0-13.6,3.58-13.6,10.31,0,10.76,3.44,18.83,8.52,24.51-8.22,8.52-14.94,15.54-15.69,16.44a1.23,1.23,0,0,0-.3,1c0,.9.45,1.94,1.19,1.94,1.35-.89,8.67-8.36,17.19-17.18a30.64,30.64,0,0,0,19.88,6.87c10.72,0,22.16-5,30.35-15.09Z"/><path class="cls-3" d="M223.64,143c-12.69,0-55.59-24-74.06-31-2.76,6.62-11,9.37-18.2,9.37-6.35,0-11.86-2.2-11.86-5.79,0-5.24,7.31-7.86,14.89-9.24-.28-5-.55-11.72-.55-19.3,0-34.61,5.51-87,42.74-87,11.86,0,16.54,6.07,16.54,13.79,0,13.51-14.61,32.26-31.16,32.26-.68,0-1.37,0-1.37-1A5,5,0,0,1,161.3,43c9.51-4.14,15.16-16.55,15.16-25.79,0-6.2-2.48-11-8.13-11C151,6.2,146.4,28.27,146.4,53.08c0,17.51,2.35,34.61,4.14,52.26,25.09.55,53.06,22.57,84.11,22.57,3.36,0,5.56-1.15,7.12-3.74C240.25,133.13,237,143,223.64,143ZM134.27,110c-4.14.69-5.79,2.34-5.79,3.72,0,1,.83,1.79,2.34,1.79C132.07,115.54,133.72,113.75,134.27,110Z"/><path class="cls-3" d="M107.6,80.93c0,1.35-1.49,2.4-5.23,2.69-1.34-4.48-4.78-5.08-8.22-5.08a9,9,0,0,0-5.67,1.95c8.51,4,11.8,11.8,11.8,19.27,0,10.47-6.57,20.48-15.09,20.48s-12-6.58-12-14.8a36.16,36.16,0,0,1,7.18-21.07,19,19,0,0,0-10.62-3c-23.61,0-38.25,30.64-38.25,59.33,0,25.56,11.65,49.77,39,49.77a40.51,40.51,0,0,0,34.67-19.73c1.8-3,3.59-6.28,5.08-9.42l2.84.75c-1.34,3-3.14,6-4.93,9.12a63.38,63.38,0,0,1-55.44,32.73c-35.12,0-50.36-22.72-50.36-49,0-35.57,27.79-77.41,71.13-77.41a39.44,39.44,0,0,1,12,1.79A17.79,17.79,0,0,1,95.8,75.85C102.67,75.85,107.6,78.69,107.6,80.93ZM83,86.46a40.19,40.19,0,0,0-6.43,20.48c0,6.42,2.69,9.86,5.68,9.86,3.29,0,6.72-4.18,6.72-13C88.92,97.82,87.28,91,83,86.46Z"/><path class="cls-3" d="M164.69,161.33l2.84.75c-1.34,3-3.29,6-4.93,9.12-9,16.88-20,25.25-28.39,25.25-7.18,0-12.41-6.27-12.41-18.53,0-5.68,1.2-12.55,3.59-20.77-4.34,5.23-13.15,9.12-19.73,9.12-4.63,0-8.22-2-8.22-6.73,0-3.44,1.2-8.07,4-14.79,1.94,4,10.16,5.08,18.38,5.08,5.53,0,11.06-.45,14.49-.75.45,0,1.05,1.2,1.05,2.24a36.81,36.81,0,0,0-3.14,13.6c0,9.72,5.68,15.69,12.56,15.69,4.93,0,10.46-3,14.79-9.86A81.79,81.79,0,0,0,164.69,161.33Z"/><path class="cls-3" d="M168.73,157.15a31.41,31.41,0,0,1-.3-3.74c0-6.42,5.38-10.46,11.65-10.46,9.57,0,22.57,9.87,22.57,29.44a23.63,23.63,0,0,1-.45,4.79c7.92-.75,15.69-5.38,21.52-15.85l2.84.75c-6.57,12.26-15.84,17.49-24.95,18.23-3.29,10.91-13.46,16.14-23.17,16.14-10.46,0-20.32-6.12-20.32-17.78A26.3,26.3,0,0,1,168.73,157.15Zm12.7-3.89a22.45,22.45,0,0,0-5.23,11.51,30.64,30.64,0,0,0,21.67,12.55v-1.64c0-14.49-15.69-26.6-22.57-26.6a3,3,0,0,0-3.29,3.14,16.18,16.18,0,0,0,.15,2.69,40.07,40.07,0,0,1,7.18-3.14Zm-5.68,16.59v3.74c0,9.56,6.43,15.24,12.4,15.24,4,0,7.93-2.69,9.27-8.52A34.26,34.26,0,0,1,175.75,169.85Z"/><path class="cls-3" d="M266.61,171.2c-8.37,14.94-20.62,23.61-30.78,23.61-10.46,0-18.68-9-18.68-29.44,0-6.73,7.77-10.31,13.6-10.31a8.6,8.6,0,0,1,5.08,1.34,85.71,85.71,0,0,0-.75,10.31c0,11.81,3.44,20,9.71,20,4.79,0,11.06-4.63,18.83-16a80.29,80.29,0,0,0,5.08-9.42l2.84.75C270.2,165.07,268.41,168.06,266.61,171.2Z"/><path class="cls-3" d="M233.49,97.86c-4.69,4.77-7.53,5.66-11.25,5.66-3.45,0-5.66-3-7.17-7.17,4.13-5.38,6.48-11.45,6.48-16.27,0-4.55-2.21-7.86-6.76-7.86-7.44,0-10.61,5.93-10.61,13.1a29,29,0,0,0,3.58,13.79,17.76,17.76,0,0,1-11,3.72c-5.79,0-8.41-6.21-8.41-13.51,0-10.34,5.1-22.75,13.51-22.75,3.17,0,6.34.55,7.58,4.68,4-.41,5.8-1.79,5.8-3.3,0-2.07-3.31-4.42-9.1-4.42-20.82,0-34.2,17.38-34.2,30.89,0,8.41,5.24,15.3,17.24,15.3a31.72,31.72,0,0,0,20.54-7.58c2.76,3.31,6.21,5.65,10.34,5.65,4.65,0,10.21-3.11,15.81-8.64ZM213.14,83.39c0-5.38,1-9.65,2.62-9.65,1.93,0,2.76,1.93,2.76,4.82,0,3.73-1.52,9-4.55,13.65A47,47,0,0,1,213.14,83.39Z"/><path class="cls-3" d="M321.22,175.73c-5.89,6.65-12.29,9.37-18.29,9.37-7.47,0-14.35-4.34-18.38-10.61,7.92-8.22,15.54-16,19.72-20a2.8,2.8,0,0,0,1.05-1.94c0-.9-.9-1.65-1.94-2.24L282.75,171.5a26.58,26.58,0,0,1-2.39-10.91,85.42,85.42,0,0,1,.75-10.31,8.53,8.53,0,0,0-5.08-1.35c-5.83,0-13.6,3.59-13.6,10.31,0,10.76,3.44,18.83,8.52,24.51-8.22,8.52-14.95,15.54-15.69,16.44a1.27,1.27,0,0,0-.3,1.05c0,.89.45,1.94,1.19,1.94,1.35-.9,8.67-8.37,17.19-17.19a30.58,30.58,0,0,0,19.87,6.88c10.73,0,22.17-5,30.36-15.1Z"/></g></g></svg>