<svg xmlns="http://www.w3.org/2000/svg" viewBox="0 0 531 83.36"><defs><style>.cls-1{fill:#76c8ab;}.cls-2{fill:#e47725;}</style></defs><g id="Layer_2" data-name="Layer 2"><g id="Layer_1-2" data-name="Layer 1"><path class="cls-1" d="M385.56,65.76c.49.08.94.19,1.13.19a1.77,1.77,0,0,0,.74-.19,2.54,2.54,0,0,1,.75-.17c1.27,0,2.54,2.54,2.54,3.67a1.33,1.33,0,0,1-1.36,1.3c-1.57,0-2.45-2.18-3.67-2.18a1,1,0,0,0-1,.94c0,1.76,6.07,2.09,6.07,6.37,0,2.59-2.51,4.39-5.38,4.39a14.59,14.59,0,0,1-2-.2c-.69-.08-1.3-.16-1.46-.16a3.31,3.31,0,0,0-.55,0,2.86,2.86,0,0,1-.53.06,1.32,1.32,0,0,1-1.21-.53,6.14,6.14,0,0,1-1.38-3.39c0-.72.25-1.3,1-1.3,1.21,0,2.31,2.73,3.86,2.73.55,0,1.08-.27,1.08-.88,0-1.63-5.41-1.82-5.41-6.37,0-2.76,2.26-4.5,5.1-4.5A8.35,8.35,0,0,1,385.56,65.76Z"/><path class="cls-1" d="M399.82,74.59c0,3.25,1.63,2.06,1.63,3.53,0,1.87-3.51,1.87-4.75,1.87-4.74,0-4.93-1.07-4.93-1.74,0-1,1.13-1,1.46-1.9a18.22,18.22,0,0,0,.11-6c-.25-1-1.66-.66-1.66-1.9,0-2,7-2.78,7.29-2.78.82,0,.85.63.85,1.21Z"/><path class="cls-1" d="M394.36,64.79c-1.16,0-2.4-.52-2.4-1.87,0-1.82,3.64-2.57,5.05-2.57,1.1,0,2.67.36,2.67,1.74C399.68,64.24,395.93,64.79,394.36,64.79Z"/><path class="cls-1" d="M410,75.08c0,2.68.94,2.21.94,3.26,0,1.71-3.67,1.65-4.8,1.65s-3.92,0-3.92-1.65c0-1.33,1.27-.14,1.36-2.84l.11-4.14c0-2-1.63-1.38-1.63-2.84s6.34-2.84,6.89-2.84a1,1,0,0,1,1,1.07c0,.17,0,.33,0,.5,0,.33.14.71.55.71s.69-.57,1.24-1.15a3.8,3.8,0,0,1,2.95-1.13c5.71,0,4.75,5.6,5,9.79.13,2.18,1.26,1.68,1.26,2.87,0,.49.11,1.65-5.07,1.65-1,0-3.64.06-3.64-1.49,0-1,.91-.52,1.05-2.31.13-2,.91-6.38-1.69-6.38-1.76,0-1.6,1.91-1.6,3.15Z"/><path class="cls-1" d="M429.75,65.59c4.14,0,6.32,2.29,6.32,4.22a2.66,2.66,0,0,1-2.7,2.73c-3,0-1.6-3.42-3.78-3.42-1.21,0-1.88,1.24-1.88,2.35a4,4,0,0,0,3.7,4.11c1.74,0,2.32-.72,2.9-.72.74,0,1.24.83,1.24,1.49,0,1.63-2.49,3.73-6.35,3.73a7.29,7.29,0,0,1-7.53-7.29C421.67,68.82,425.12,65.59,429.75,65.59Z"/><path class="cls-1" d="M443.74,73.34h6c.88,0,1.71-.24,1.71-2.06,0-2.07-2.07-5.69-6.76-5.69a7.51,7.51,0,0,0-7.75,7.34c0,3.56,2.56,7.15,7.53,7.15,2.48,0,6.37-1.55,6.37-3.67,0-.53-.5-1.38-1.08-1.38s-1.6,1.24-3.66,1.24c-1.3,0-3.09-1.16-3.09-2.54C443,73.26,443.44,73.34,443.74,73.34Zm-.88-3.42a1.83,1.83,0,0,1,1.65-1.82,1.62,1.62,0,0,1,1.63,1.77c0,1-.88.83-1.63.83S442.86,70.92,442.86,69.92Z"/><path class="cls-1" d="M465.84,69.45c0-1.24-.11-1.73-1.46-1.73-.36,0-.69,0-1,0-.58,0-1.11-.3-1.11-.91,0-1.9,6.21-3.42,10.29-3.42.86,0,2.29.06,2.29,1.24,0,1.38-2,.39-2.07,3,0,1.46-.05,2.4-.05,3.31a33.45,33.45,0,0,0,.25,4.72c.49,2.45,3.61.52,3.61,2.48,0,1-.85,1.22-1.65,1.41a34.55,34.55,0,0,1-5.58.5c-1,0-7.69-.14-7.69-2a1.17,1.17,0,0,1,1.24-1.1c.47,0,1,.17,1.43.17,1.05,0,1.52-.72,1.52-3.89Z"/><path class="cls-1" d="M492.9,63.63c.72,0,1.69,0,1.69,1.05a3.09,3.09,0,0,1-.22,1l-5.55,16.77c-.22.72-.25.94-1.6.94-3,0-4.3-1.11-4.3-1.55a1.84,1.84,0,0,1,.27-.66l5-9.49a6.09,6.09,0,0,0,.74-1.87c0-1.08-2.42-.91-3.25-.91-5.49,0-2.9,1.71-5.16,1.71-1.66,0-2.07-1.74-2.07-3.07,0-2.62,1.19-4.66,2.48-4.66,1.13,0,.86.77,3.56.77Z"/><path class="cls-1" d="M512,70.37c-.19-.14-.66-.41-.66-.66,0-.55,2.4-1.08,2.4-3.42,0-3.7-5.68-4.5-8.44-4.5-3.89,0-7.61,1.88-7.61,5.3,0,2.37,1.87,3.28,1.87,3.75s-2.31,1.13-2.31,3.7c0,4.27,5.54,5.57,8.91,5.57,5.87,0,7.86-3.72,7.86-6A4.67,4.67,0,0,0,512,70.37Zm-6.59,6.87A3.51,3.51,0,0,1,502,73.93c0-.47.17-1.1.72-1.1a8.8,8.8,0,0,1,2.76,1c.85.44,1.9.83,1.9,2S506.31,77.24,505.4,77.24Zm2.07-9.41c-.91,0-2.9-1.32-2.9-2.34,0-.72.8-1.08,1.47-1.08,1.1,0,2.4.53,2.4,1.82C508.44,66.76,508.13,67.83,507.47,67.83Z"/><path class="cls-1" d="M518,74.7c-.66,0-1.16-1.65-1.16-2.18,0-1.13,3.7-1,3.7-3.58a2.11,2.11,0,0,0-2.15-1.85c-1.36,0-2.29,1-2.79,1s-1-1-1-1.55c0-1.46,3.83-3,7.09-3,2.2,0,6.73.69,6.73,3.61,0,2.37-2.07,2.87-2.07,3.5,0,1,4.63.09,4.63,4.89,0,3.5-3.22,7.17-10.51,7.17-1.38,0-6.23-.28-6.23-2.26a1.47,1.47,0,0,1,1.54-1.49,28.33,28.33,0,0,0,3.42.49c1.74,0,3.7-.94,3.7-2.65s-1.49-2.31-2.92-2.31A11.43,11.43,0,0,0,518,74.7Z"/><path class="cls-2" d="M23.61,54.05c-8.07,0-14-2-22.67-7.15A1.6,1.6,0,0,1,.27,45l3.79-9.58a1.58,1.58,0,0,1,2.29-.77c6.63,4.09,12.18,5.66,16.46,5.66,4.54,0,9.46-1.1,9.46-3.81,0-2.35-7.41-2.94-11.59-3.23C11.51,32.56,0,29.85,0,17.31,0,3.08,14.89.22,23.47.22c7.21,0,14.09,2.21,22,6.94a1.58,1.58,0,0,1,.66,1.92L43,17.37a1.57,1.57,0,0,1-2.19.85,37.45,37.45,0,0,0-17.3-4.29c-7,0-8.51,1.84-8.51,2.94,0,1.89,6.85,2.26,9.47,2.27h.14C33.51,20,47.3,21.67,47.3,36.37,47.3,50.6,34.61,54.05,23.61,54.05Z"/><path class="cls-2" d="M88.38,54C70.11,54,53.1,47.57,53.1,26.91,53.1,7.76,68.85,0,87.57,0c9.6,0,17.72,3.59,22.27,8.07a1.86,1.86,0,0,1,.41,2.08l-3.75,8.63a1.88,1.88,0,0,1-2.82.75,24.88,24.88,0,0,0-15.23-5c-6.3,0-11.8,3.37-11.8,11.81,0,8.28,5.5,11.88,11.73,11.88,5.6,0,10.8-1,15.31-4.61a1.85,1.85,0,0,1,2.87.74l3.65,8.78a1.84,1.84,0,0,1-.38,2C105.78,49.38,99.19,54,88.38,54Z"/><path class="cls-2" d="M149.05,35.13H135.52a1.23,1.23,0,0,0-1.23,1.22V51.58a1.22,1.22,0,0,1-1.22,1.22H120a1.23,1.23,0,0,1-1.23-1.22v-49A1.23,1.23,0,0,1,120,1.39h13.17a1.23,1.23,0,0,1,1.23,1.23V19.24a1.22,1.22,0,0,0,1.22,1.22h13.46a1.23,1.23,0,0,0,1.23-1.22V2.62a1.23,1.23,0,0,1,1.22-1.23h22.07a1.23,1.23,0,0,1,1.22,1.23v49a1.22,1.22,0,0,1-1.22,1.22H151.5a1.22,1.22,0,0,1-1.22-1.22V36.35A1.23,1.23,0,0,0,149.05,35.13Z"/><path class="cls-2" d="M227.91,51.52,221.5,32a1.86,1.86,0,0,0-3.55.06c-1.85,6.48-3.76,12.87-5.79,19.4a1.87,1.87,0,0,1-1.77,1.31h-8.63A1.85,1.85,0,0,1,200,51.58L182.63,3.89a2,2,0,0,1,0-1.19h0a1.87,1.87,0,0,1,1.78-1.31h13a1.86,1.86,0,0,1,1.74,1.23l5.73,16a1.86,1.86,0,0,0,3.55-.17c1.35-5.25,2.64-10.25,4.13-15.65a1.87,1.87,0,0,1,1.79-1.37h10.75a1.86,1.86,0,0,1,1.76,1.26l5.78,17a1.86,1.86,0,0,0,3.52,0c2-5.72,4.07-11.1,6.07-17A1.86,1.86,0,0,1,244,1.39h21.38a1.87,1.87,0,0,1,1.78,1.31v0a1.84,1.84,0,0,1,0,1.16L250.44,51.56a1.87,1.87,0,0,1-1.76,1.24h-19A1.85,1.85,0,0,1,227.91,51.52Z"/><path class="cls-2" d="M274.15,1.39h45.3a1.48,1.48,0,0,1,1.48,1.48v9.44a1.48,1.48,0,0,1-1.48,1.48H297.4a1.48,1.48,0,0,0-1.48,1.48c0,2.42,0,3.66-.05,4.64a1.47,1.47,0,0,0,1.48,1.5h18.06a1.49,1.49,0,0,1,1.49,1.49v8.77a1.49,1.49,0,0,1-1.49,1.48h-18a1.48,1.48,0,0,0-1.48,1.48v4.22a1.48,1.48,0,0,0,1.48,1.48h22.78a1.49,1.49,0,0,1,1.48,1.49v9.5a1.48,1.48,0,0,1-1.48,1.48h-46.1a1.48,1.48,0,0,1-1.48-1.48l.07-48.45A1.48,1.48,0,0,1,274.15,1.39Z"/><path class="cls-2" d="M353.57,1.39H331.19a1.68,1.68,0,0,0-1.68,1.68l-.07,48.05a1.68,1.68,0,0,0,1.68,1.68h12.19A1.68,1.68,0,0,0,345,51.12V40.91a1.68,1.68,0,0,1,1.68-1.68h6.68c10.71,0,19.58-7,19.58-18.92C372.93,8.21,365.3,1.39,353.57,1.39ZM352.17,26H345V15.33h7.77c3.74,0,5.43,1.76,5.43,5.13C358.19,23.54,356.06,26,352.17,26Z"/><path class="cls-2" d="M403.37,1.39H380.79a1.48,1.48,0,0,0-1.48,1.48l-.07,48.45a1.48,1.48,0,0,0,1.48,1.48H393.3a1.49,1.49,0,0,0,1.49-1.48V40.72a1.49,1.49,0,0,1,1.48-1.49h6.88c10.7,0,19.58-7,19.58-18.92C422.73,8.21,415.1,1.39,403.37,1.39ZM402,26h-7.18V15.33h7.77c3.74,0,5.43,1.76,5.43,5.13C408,23.54,405.86,26,402,26Z"/><path class="cls-2" d="M431.2,1.39h43.41a1.87,1.87,0,0,1,1.87,1.87v8.66a1.87,1.87,0,0,1-1.87,1.87H453.34a1.87,1.87,0,0,0-1.87,1.86c0,1.88,0,3-.05,3.87a1.87,1.87,0,0,0,1.87,1.89h17.29a1.87,1.87,0,0,1,1.87,1.87v8a1.87,1.87,0,0,1-1.87,1.87H453.34A1.87,1.87,0,0,0,451.47,35v3.46a1.87,1.87,0,0,0,1.87,1.86h22a1.87,1.87,0,0,1,1.86,1.87v8.73a1.86,1.86,0,0,1-1.86,1.87H431.13a1.87,1.87,0,0,1-1.87-1.87l.07-47.67A1.87,1.87,0,0,1,431.2,1.39Z"/><path class="cls-2" d="M506.33,54.05c-8.06,0-14-2-22.63-7.13a1.65,1.65,0,0,1-.69-2l3.74-9.47a1.65,1.65,0,0,1,2.38-.79c6.6,4.06,12.13,5.62,16.39,5.62,4.55,0,9.47-1.1,9.47-3.81,0-2.35-7.41-2.94-11.59-3.23-9.17-.66-20.68-3.37-20.68-15.91C482.72,3.08,497.6.22,506.18.22c7.2,0,14.07,2.2,21.94,6.91a1.65,1.65,0,0,1,.68,2l-3.1,8.19a1.64,1.64,0,0,1-2.28.87,37.44,37.44,0,0,0-17.24-4.25c-7,0-8.5,1.84-8.5,2.94,0,1.89,6.84,2.26,9.46,2.27h.14c9,.88,22.74,2.53,22.74,17.22C530,50.6,517.33,54.05,506.33,54.05Z"/></g></g></svg>